<svg viewBox="0 0 328.846 328.846" id="Class_7E" xmlns="http://www.w3.org/2000/svg"><path fill="#FFF" d="M1.528 164.428L164.42 1.537l162.892 162.892-162.891 162.89z"/><path fill="none" stroke="#1F1A17" stroke-width="1.644" stroke-linecap="round" stroke-linejoin="round" stroke-miterlimit="10" d="M209.964 217.974h-86.343v-47.459h86.343v47.459z"/><path fill="none" stroke="#000" stroke-width="3.0589694100000004" stroke-linecap="square" stroke-dasharray="12.2378,12.2378" stroke-dashoffset="7" d="M164.427 327.318L1.536 164.427 164.426 1.535 327.32 164.427z"/><path fill="none" stroke="#1F1A17" stroke-width="1.827" stroke-linecap="round" stroke-linejoin="round" stroke-miterlimit="10" d="M25.126 163.517h281.332"/><path fill="none" stroke="#1F1A17" stroke-width="2.73644929" stroke-linecap="round" stroke-linejoin="round" stroke-miterlimit="10" d="M22.386 163.517l142.494 141.58 141.58-141.58L164.88 22.166 22.386 163.517z"/><path d="M175.92 265.017h-16.903v4.367h12.064c-4.529 5.502-7.123 11.773-7.78 18.816h5.03c.05-3.268.718-6.715 2.022-10.338 1.272-3.624 3.128-6.563 5.565-8.816v-4.029zM114.887 155.734h-2.995v-22.169h15.345v2.655h-12.35v6.793h10.868v2.655h-10.868v10.066zM133.419 155.734h-2.995v-22.169h2.995v22.169zM151.391 140.049c-.04-.865-.231-1.584-.57-2.161a4.187 4.187 0 00-1.298-1.39c-.525-.349-1.105-.596-1.744-.74s-1.266-.217-1.884-.217c-.472 0-1.003.046-1.59.139a5.145 5.145 0 00-1.652.556c-.515.278-.947.67-1.296 1.173-.35.506-.525 1.18-.525 2.022 0 .473.077.871.231 1.19.155.317.355.586.602.802.247.216.525.386.834.51.309.123.627.228.957.308l6.33 1.451c.72.164 1.39.402 2.007.71a5.379 5.379 0 011.59 1.19 5.466 5.466 0 011.05 1.713c.259.657.386 1.43.386 2.315 0 1.319-.272 2.409-.819 3.273a6.151 6.151 0 01-2.1 2.053 9.041 9.041 0 01-2.809 1.066 14.8 14.8 0 01-2.949.308c-1.028 0-1.908-.067-2.64-.2-.728-.133-1.358-.309-1.883-.525-.525-.216-.957-.448-1.297-.695-.34-.247-.633-.485-.88-.71-.948-.864-1.559-1.757-1.837-2.67a10.114 10.114 0 01-.417-2.95h2.81c0 1.01.185 1.844.556 2.502.37.657.849 1.188 1.436 1.59a5.667 5.667 0 001.96.849 9.753 9.753 0 002.162.247c.534 0 1.142-.047 1.821-.14a6.71 6.71 0 001.9-.54 4.12 4.12 0 001.481-1.126c.402-.485.602-1.127.602-1.93 0-.578-.077-1.065-.231-1.467a2.415 2.415 0 00-.772-1.034c-.362-.287-.843-.54-1.451-.757a24.879 24.879 0 00-2.27-.663l-4.539-1.05c-.37-.08-.824-.22-1.358-.417a5.527 5.527 0 01-1.544-.88c-.494-.392-.92-.902-1.281-1.528-.361-.627-.54-1.424-.54-2.393 0-.865.145-1.708.432-2.532a5.955 5.955 0 011.358-2.192c.618-.64 1.411-1.152 2.378-1.544.966-.392 2.12-.587 3.458-.587 1.936 0 3.467.254 4.6.757 1.133.506 1.992 1.12 2.578 1.852.587.732.967 1.504 1.143 2.316.173.815.284 1.528.324 2.146h-2.81zM171.516 140.049c-.043-.865-.231-1.584-.571-2.161a4.187 4.187 0 00-1.297-1.39 5.077 5.077 0 00-1.744-.74 8.479 8.479 0 00-1.884-.217c-.472 0-1.003.046-1.59.139a5.12 5.12 0 00-1.652.556 3.676 3.676 0 00-1.296 1.173c-.35.506-.525 1.18-.525 2.022 0 .473.077.871.231 1.19.155.317.355.586.602.802.247.216.525.386.834.51.309.123.63.225.957.308l6.33 1.451c.719.164 1.389.402 2.007.71a5.379 5.379 0 011.59 1.19c.444.484.793 1.052 1.05 1.713s.385 1.432.385 2.315c0 1.319-.271 2.409-.818 3.273a6.124 6.124 0 01-2.1 2.053 9.012 9.012 0 01-2.81 1.066 14.8 14.8 0 01-2.948.308c-1.031 0-1.908-.067-2.64-.2a9.363 9.363 0 01-1.883-.525c-.525-.216-.957-.448-1.297-.695a9.719 9.719 0 01-.88-.71c-.948-.864-1.559-1.757-1.837-2.67a10.114 10.114 0 01-.417-2.95h2.81c0 1.007.185 1.844.556 2.502.37.657.849 1.188 1.435 1.59a5.726 5.726 0 001.961.849c.72.163 1.442.247 2.161.247.535 0 1.143-.047 1.822-.14a6.71 6.71 0 001.899-.54 4.154 4.154 0 001.482-1.126c.401-.485.602-1.127.602-1.93 0-.578-.077-1.065-.232-1.467a2.433 2.433 0 00-.771-1.034c-.362-.287-.843-.54-1.452-.757a24.879 24.879 0 00-2.269-.663l-4.536-1.05c-.37-.084-.824-.22-1.358-.417a5.527 5.527 0 01-1.544-.88c-.494-.392-.92-.902-1.281-1.528-.362-.627-.54-1.427-.54-2.393 0-.865.145-1.708.432-2.532a5.905 5.905 0 011.358-2.192c.618-.64 1.411-1.152 2.378-1.544.966-.392 2.12-.587 3.458-.587 1.936 0 3.467.254 4.6.757 1.133.506 1.992 1.124 2.578 1.852.587.732.967 1.504 1.143 2.316.176.812.284 1.528.324 2.146h-2.813zM181.727 155.734h-2.995v-22.169h2.995v22.169zM189.328 153.079h11.24v2.655h-14.235v-22.169h2.995v19.514zM219.695 155.734H203.33v-22.169h16.148v2.655h-13.153v6.793h12.134v2.655h-12.134v7.41h13.366l.003 2.656z"/><g><path d="M141.983 196.703c-.099-.841-.45-1.49-1.05-1.947s-1.348-.692-2.24-.702c-1.17.032-2.078.432-2.727 1.2-.647.769-.975 1.722-.985 2.858.01 1.14.338 2.093.985 2.862.647.769 1.557 1.17 2.728 1.2.952-.015 1.722-.305 2.312-.872s.918-1.323.987-2.263h-1.324c-.055.576-.246 1.057-.576 1.436-.328.382-.796.576-1.4.591-.823-.028-1.423-.335-1.799-.918-.375-.582-.56-1.26-.554-2.033-.005-.774.18-1.45.554-2.034.376-.581.976-.888 1.8-.916.56.007.995.154 1.303.436.309.281.518.651.629 1.105h1.357zM144.593 195.344l2.204.002c.363-.014.677.062.938.221.26.16.397.48.407.962-.001.409-.114.715-.34.923-.226.21-.553.312-.983.313l-2.226-.001v-2.42zm-1.355 6.644h1.355v-3.192h1.998c.61-.002 1.023.162 1.24.492.214.332.315.852.301 1.56-.005.191.005.387.025.587.022.197.08.382.181.55l1.455.003c-.146-.166-.253-.434-.322-.801a6.781 6.781 0 01-.102-1.24c-.019-.6-.153-1.019-.4-1.257-.249-.234-.498-.362-.751-.382v-.022c.093-.023.24-.095.442-.214.201-.12.389-.315.561-.592.173-.274.267-.656.277-1.147-.002-.662-.216-1.177-.647-1.542-.429-.363-1.067-.55-1.915-.553h-3.701v7.75zM150.868 201.986l1.357.002v-7.75l-1.357-.001v7.749zM153.14 195.411h2.453v6.577h1.357v-6.577h2.465v-1.174l-6.273.001-.002 1.173zM160.323 201.988l1.357-.002.002-7.748-1.357-.001v7.75zM169.922 196.701c-.098-.84-.449-1.49-1.05-1.947-.602-.455-1.347-.69-2.239-.7-1.17.032-2.08.43-2.727 1.2-.647.769-.976 1.722-.986 2.858.01 1.14.339 2.093.986 2.862.646.769 1.554 1.168 2.727 1.2.952-.015 1.723-.305 2.313-.872s.918-1.322.986-2.263h-1.323c-.056.578-.247 1.057-.577 1.437-.33.38-.797.577-1.399.592-.824-.03-1.426-.337-1.8-.918-.376-.582-.562-1.26-.555-2.035-.006-.774.179-1.45.554-2.034.375-.581.975-.888 1.801-.916.56.007.994.154 1.304.437.31.282.518.652.628 1.104l1.357-.005zM173.944 195.572h.033l1.16 3.333h-2.366l1.173-3.333zm-3.668 6.416h1.4l.728-2.051h3.093l.727 2.05h1.454l-2.985-7.749h-1.443l-2.974 7.75zM178.427 201.988h5.297v-1.172h-3.941v-6.578h-1.357v7.75zM184.659 201.988h1.357v-7.75l-1.357.002v7.748zM186.93 195.411h2.454v6.577h1.357v-6.577h2.464v-1.173h-6.274v1.173zM196.133 201.988h1.355l.002-3.04 2.897-4.71h-1.52l-2.017 3.474-2.053-3.474-1.575-.001 2.909 4.711v3.04zM129.48 210.258c.039.957.36 1.657.965 2.104.605.446 1.362.669 2.267.662.805.009 1.51-.179 2.12-.563.611-.383.931-1.005.963-1.866a2.055 2.055 0 00-.37-1.175c-.25-.368-.627-.635-1.138-.8-.15-.044-.395-.111-.73-.2l-.96-.255-.543-.142a1.466 1.466 0 01-.67-.355c-.165-.16-.25-.376-.255-.645.02-.384.18-.65.476-.798.295-.147.611-.22.945-.211.474-.005.861.097 1.16.308.3.211.472.565.512 1.06h1.357c-.022-.81-.317-1.425-.881-1.842-.563-.417-1.262-.63-2.093-.632-.73-.002-1.377.183-1.942.558-.563.374-.861.947-.891 1.722-.012.411.109.795.36 1.148.251.355.702.627 1.354.816.528.14.977.258 1.35.35.374.094.694.191.96.289.165.055.312.155.44.298.127.144.194.363.202.657.007.305-.117.573-.372.806-.255.23-.677.355-1.268.366-.557.005-1.019-.122-1.39-.382-.368-.26-.56-.687-.574-1.278h-1.354zM139.753 206.426h.032l1.16 3.333-2.367-.002 1.175-3.33zm-3.67 6.414h1.4l.727-2.05h3.093l.727 2.05h1.454l-2.984-7.75h-1.443l-2.974 7.75zM144.235 212.84h1.355v-3.442l3.506.002v-1.107l-3.506.001v-2.03h3.995v-1.173h-5.35v7.749zM150.679 212.84h5.653v-1.171h-4.298v-2.27h3.908v-1.106l-3.908.001v-2.03l4.223-.002v-1.171l-5.58-.002.002 7.751zM156.788 206.264h2.453v6.578h1.357v-6.577l2.463-.001v-1.172h-6.273v1.172zM165.988 212.84h1.357v-3.04l2.9-4.708-1.52-.001-2.02 3.475-2.05-3.475-1.574.001 2.909 4.71v3.038zM174.017 212.84l1.358.002v-7.75h-1.358v7.748zM176.973 212.84h1.292v-5.698h.033l3.527 5.698 1.431-.002-.001-7.749-1.29.002-.002 5.708-.02.002-3.54-5.709h-1.43v7.748zM186.227 206.198h1.335c1.04.017 1.734.285 2.09.803.355.516.52 1.171.494 1.965.025.794-.14 1.451-.494 1.967-.356.515-1.05.783-2.09.8l-1.335.001v-5.536zm-1.357 6.642h3.213c1.188-.027 2.056-.405 2.606-1.134.55-.733.82-1.644.814-2.74.007-1.096-.265-2.009-.814-2.738-.55-.728-1.418-1.109-2.606-1.136h-3.213v7.748zM192.715 212.84h5.654v-1.171l-4.296-.002V209.4l3.906-.002v-1.105h-3.907v-2.031h4.22v-1.173h-5.577v7.751zM201.45 208.824l-2.745 4.016 1.551.002 1.965-2.963 1.932 2.963h1.65l-2.745-4.017 2.561-3.734-1.52.001-1.834 2.737-1.76-2.737h-1.618l2.562 3.732z"/></g></svg>