<svg viewBox="0 0 24 24" id="promo-burst-generic" xmlns="http://www.w3.org/2000/svg"><defs><path d="M3.779 17.748a10.29 10.29 0 00-1.572-.345 2.617 2.617 0 01-1.475-.722 2.405 2.405 0 01.047-3.5A9.665 9.665 0 001.849 12a9.665 9.665 0 00-1.07-1.182A2.405 2.405 0 01.732 7.32c.396-.39.914-.643 1.475-.722a10.29 10.29 0 001.572-.345 9.168 9.168 0 00-.143-1.512 2.388 2.388 0 01.259-1.57c.663-1.21 2.221-1.675 3.481-1.04.475.24.965.44 1.466.602a9.47 9.47 0 00.846-1.352c.63-1.226 2.176-1.729 3.453-1.124.508.241.92.636 1.17 1.124.245.476.53.928.847 1.352.5-.161.99-.361 1.465-.601a2.672 2.672 0 011.636-.249c1.403.231 2.345 1.51 2.105 2.858a9.168 9.168 0 00-.143 1.512 10.29 10.29 0 001.571.345c1.41.197 2.386 1.453 2.18 2.805a2.441 2.441 0 01-.75 1.416A9.665 9.665 0 0022.15 12c.32.418.678.813 1.071 1.182.406.38.67.877.752 1.416.205 1.352-.772 2.608-2.18 2.805a10.29 10.29 0 00-1.572.345c.006.503.053 1.009.143 1.512.24 1.347-.702 2.627-2.105 2.858a2.672 2.672 0 01-1.636-.249c-.475-.24-.965-.44-1.465-.601a9.47 9.47 0 00-.846 1.352c-.251.488-.663.883-1.171 1.124-1.277.605-2.823.102-3.453-1.124a9.47 9.47 0 00-.846-1.352c-.5.161-.99.361-1.466.601-1.26.636-2.818.171-3.481-1.039a2.388 2.388 0 01-.26-1.57c.091-.503.138-1.009.144-1.512zm5.752-3.61H7c.12 1.385.557 2.436 1.31 3.151.755.716 1.802 1.121 3.142 1.215V20h1.06v-1.496c.897-.059 1.633-.235 2.208-.528.574-.294 1.032-.628 1.373-1.004.341-.375.578-.76.71-1.152.131-.394.197-.72.197-.977 0-.294-.02-.628-.063-1.004a2.762 2.762 0 00-.404-1.126c-.227-.376-.58-.736-1.059-1.083-.479-.346-1.161-.636-2.047-.87a11.728 11.728 0 00-.475-.124c-.15-.035-.297-.07-.44-.106V7.415c.407 0 .754.164 1.041.493.287.328.437.727.449 1.197h2.55c-.037-.61-.168-1.139-.396-1.585a3.508 3.508 0 00-.88-1.117c-.359-.3-.775-.534-1.247-.704a6.563 6.563 0 00-1.517-.344V4h-1.06v1.355a6.089 6.089 0 00-1.562.308c-.502.17-.945.411-1.328.722a3.53 3.53 0 00-.925 1.153c-.233.458-.35.986-.35 1.584 0 .587.102 1.077.305 1.47.204.393.476.722.817.986.341.264.727.475 1.158.633.431.159.868.297 1.31.414a3.934 3.934 0 01.575.158v3.679a2.522 2.522 0 01-1.382-.74c-.371-.386-.55-.915-.539-1.583zm2.98 2.324v-3.38c.707.188 1.207.397 1.5.625.293.23.44.572.44 1.03 0 .282-.06.525-.18.73-.12.206-.272.379-.458.52a2.12 2.12 0 01-.628.325 3.333 3.333 0 01-.673.15zm-1.059-9.047v2.869c-.574-.13-.987-.3-1.238-.51-.252-.212-.377-.511-.377-.898 0-.247.045-.46.134-.643.09-.182.213-.334.368-.457.156-.124.33-.215.521-.273.191-.059.389-.088.592-.088z" id="eea"/></defs><use xmlns:xlink="http://www.w3.org/1999/xlink" xlink:href="#eea"/></svg>