<svg viewBox="0 0 328.846 328.846" id="Class_7C" xmlns="http://www.w3.org/2000/svg"><path fill="#FFF" d="M1.53 164.426L164.42 1.535l162.892 162.892-162.89 162.89z"/><path fill="none" stroke="#000" stroke-width="1.984" stroke-dasharray="1.9843,1.9843" d="M163.706 213.672h45.497M158.284 199.146l69.52-.001"/><path d="M104.584 214.56h1.984l.673-1.984h3.33l.674 1.984h2.02l-3.331-8.895h-1.984l-3.366 8.895zm4.322-6.698h.035l1.134 3.26h-2.303l1.134-3.26zM121.875 208.677c-.142-1.063-.567-1.842-1.275-2.41-.708-.53-1.56-.778-2.551-.814-1.382.036-2.48.46-3.224 1.348-.78.885-1.134 2.019-1.17 3.365.036 1.312.39 2.375 1.17 3.26.744.886 1.842 1.346 3.224 1.347 2.268-.071 3.579-1.275 3.898-3.65h-1.914c-.071.604-.248 1.099-.602 1.453-.32.354-.815.532-1.382.567-.886-.035-1.49-.354-1.878-.957-.39-.602-.567-1.275-.567-2.02 0-.814.177-1.523.567-2.125.39-.604.992-.922 1.878-.922.496-.001.92.14 1.275.426.354.283.567.672.638 1.133h1.913zM125.24 214.56h1.95v-7.23h2.657v-1.665h-7.3v1.666h2.693v7.229zM130.875 214.56l1.949-.001v-8.894h-1.95v8.895zM141.61 205.665l-2.02-.001-1.983 6.272h-.036l-1.984-6.272h-2.02l2.905 8.896h2.197l2.942-8.895zM142.39 214.56h1.95v-8.896h-1.948v8.896zM148.024 214.56h1.949v-7.23h2.658v-1.665h-7.265v1.665h2.658v7.23zM155.96 214.56h1.95v-3.403l3.296-5.491h-2.162l-2.09 3.508-2.055-3.508-2.197-.001 3.259 5.422v3.473zM96.54 194.398c-.142-1.027-.567-1.772-1.275-2.338-.674-.496-1.524-.78-2.48-.78-1.347 0-2.41.46-3.153 1.312-.744.85-1.135 1.949-1.134 3.26 0 1.31.39 2.374 1.134 3.224.743.85 1.807 1.312 3.153 1.312 2.232-.07 3.508-1.24 3.826-3.543h-1.877c-.071.566-.25 1.027-.567 1.382-.354.354-.815.53-1.382.567-.851-.037-1.453-.32-1.843-.922-.354-.603-.531-1.24-.531-2.02s.177-1.49.53-2.055c.39-.604.993-.888 1.843-.922.46 0 .886.142 1.276.426.319.283.53.673.603 1.098h1.877zM97.532 195.85c0 1.312.39 2.375 1.134 3.225.744.85 1.77 1.312 3.118 1.312 1.382 0 2.445-.461 3.153-1.311.744-.851 1.134-1.914 1.134-3.225s-.39-2.411-1.134-3.26c-.708-.851-1.771-1.312-3.153-1.312-1.346 0-2.374.46-3.118 1.312-.744.85-1.134 1.949-1.134 3.26zm1.914 0c-.036-.778.142-1.487.53-2.054.355-.604.993-.887 1.808-.922.885.035 1.488.318 1.842.922.354.565.532 1.275.532 2.055s-.177 1.417-.532 2.02c-.354.603-.957.886-1.842.922-.815-.037-1.453-.32-1.807-.922-.39-.603-.567-1.241-.531-2.02zM107.383 200.172h1.77v-5.811h.036l3.614 5.812h1.914v-8.681h-1.772v5.812h-.035l-3.65-5.812h-1.877v8.68zM118.332 200.173h1.913v-7.086h2.587v-1.595h-7.122v1.595h2.622v7.086zM123.858 200.173l6.59-.001v-1.593l-4.676-.001v-2.126h4.216v-1.487l-4.216-.001v-1.877h4.57v-1.595h-6.485v8.68zM131.76 200.173l1.772-.001v-5.81h.036l3.614 5.81h1.913v-8.68l-1.771-.001v5.812h-.036l-3.65-5.811-1.877-.001v8.682zM142.709 200.172h1.914v-7.085h2.587v-1.596h-7.123v1.596h2.623l-.001 7.085zM147.67 197.304c.036 1.063.39 1.84 1.133 2.337.709.497 1.595.745 2.587.745 1.169 0 2.09-.283 2.693-.814.603-.497.922-1.17.922-1.984 0-.496-.106-.887-.32-1.205a1.888 1.888 0 00-.743-.744 3.058 3.058 0 00-.851-.39c-.284-.107-.496-.142-.674-.177-1.063-.284-1.771-.496-2.126-.64-.177-.104-.283-.176-.354-.282a.712.712 0 01-.106-.39c0-.39.142-.638.425-.78.248-.142.567-.212.886-.212.46 0 .85.07 1.169.248.319.213.496.53.532 1.063l1.877-.001c-.035-1.026-.39-1.735-1.063-2.161-.673-.425-1.488-.638-2.445-.638-.814 0-1.56.212-2.197.638-.673.426-1.027 1.099-1.063 1.984 0 .39.106.744.248 1.027a2.2 2.2 0 00.602.674c.248.176.496.354.815.46.319.14.638.248.957.319.673.142 1.24.318 1.77.496.25.07.462.213.604.354.142.142.213.354.212.603 0 .213-.071.39-.177.496-.106.142-.25.282-.425.354s-.354.143-.531.178c-.212.035-.39.034-.567.035-.532 0-.993-.105-1.347-.39-.39-.248-.566-.638-.602-1.204h-1.841z"/><path fill="none" stroke="#000" stroke-width="3.0589694100000004" stroke-linecap="square" stroke-dasharray="12.2378,12.2378" stroke-dashoffset="7" d="M164.426 327.316L1.534 164.425 164.426 1.533l162.891 162.892z"/><path d="M75.886 187.039h3.394v-6.032h3.384c.853 0 1.47.184 1.859.54.378.379.616.973.713 1.795.076.616.13 1.264.195 1.924.054.313.097.627.162.93.043.302.108.583.195.843h3.394a2.18 2.18 0 01-.325-.822 2.387 2.387 0 01-.086-.497 2.877 2.877 0 01-.086-.476 49.297 49.297 0 01-.163-1.86 5.96 5.96 0 00-.518-2.247c-.336-.682-.908-1.136-1.73-1.363v-.043c1.643-.735 2.465-2.032 2.454-3.87-.011-1.21-.422-2.216-1.21-3.016-.8-.81-1.893-1.221-3.309-1.232h-8.334l.01 15.426zm3.405-12.8h3.718c1.546-.01 2.325.693 2.335 2.13-.01 1.503-.789 2.238-2.335 2.206h-3.718v-4.335z"/><path d="M89.084 187.039h3.427l1.21-3.438h5.773l1.157 3.438h3.524l-5.772-15.437h-3.46l-5.859 15.437zm7.535-11.632h.043l1.957 5.665h-4l2-5.665zM104.748 187.039h6.659c2.345-.011 4.107-.768 5.275-2.249 1.156-1.427 1.73-3.275 1.73-5.556-.022-2.573-.692-4.486-2-5.75-1.298-1.255-2.962-1.882-5.016-1.882h-6.659v15.437zm3.405-12.583h2.421c1.676.01 2.843.476 3.503 1.384.648.908.962 2.15.95 3.718 0 .843-.096 1.557-.302 2.14-.194.606-.486 1.092-.865 1.45a2.883 2.883 0 01-1.2.777 4.3 4.3 0 01-1.47.26h-3.026l-.011-9.729zM119.968 187.039h3.394v-15.437h-3.394v15.437zM124.886 179.385c.011 2.281.681 4.173 2.011 5.665 1.33 1.545 3.189 2.324 5.589 2.356 2.421-.032 4.291-.81 5.6-2.356 1.307-1.503 1.966-3.384 1.988-5.665-.01-2.345-.67-4.291-1.989-5.815-1.308-1.524-3.178-2.303-5.6-2.335-2.388.032-4.248.81-5.588 2.335-1.33 1.524-2 3.459-2.01 5.815zm3.384 0c-.011-1.416.313-2.637.973-3.675.66-1.06 1.73-1.6 3.232-1.632 1.524.032 2.616.573 3.264 1.632.617 1.038.93 2.26.93 3.675 0 1.32-.313 2.508-.93 3.546-.648 1.048-1.73 1.589-3.264 1.621-1.503-.032-2.573-.562-3.232-1.61-.66-1.049-.984-2.238-.973-3.557zM139.923 187.039h3.426l1.211-3.438h5.773l1.156 3.438h3.524l-5.772-15.437h-3.47l-5.848 15.437zm7.545-11.632h.043l1.957 5.665h-4l2-5.665zM169.163 176.791c-.227-1.805-.962-3.178-2.205-4.13-1.222-.94-2.702-1.415-4.443-1.426-2.389.032-4.259.81-5.588 2.335-1.32 1.524-1.99 3.47-2.011 5.815.01 2.281.68 4.173 2.01 5.665 1.33 1.545 3.19 2.324 5.59 2.356 3.977-.108 6.236-2.205 6.788-6.313h-3.297c-.13 1.038-.476 1.86-1.06 2.476-.594.637-1.405.962-2.443.973-1.502-.033-2.572-.563-3.232-1.611-.66-1.038-.983-2.227-.973-3.546-.01-1.416.314-2.637.973-3.675.66-1.06 1.73-1.6 3.232-1.632.854.01 1.611.27 2.249.756a3.102 3.102 0 011.124 1.946h3.286zM174.222 187.039h3.384v-12.583h4.637v-2.854h-12.647v2.854h4.626v12.583zM183.227 187.039h3.394v-15.437h-3.394v15.437zM201.117 171.602h-3.503l-3.48 10.853h-.044l-3.437-10.853h-3.492l5.016 15.437h3.827l5.113-15.437zM201.657 187.039h11.718v-2.854h-8.323v-3.794h7.47v-2.638h-7.47v-3.308h8.15v-2.854h-11.545v15.448z"/><g><path fill="#FFF600" d="M23.3 164.43L165.793 22.167l140.666 141.351"/></g><path fill="none" stroke="#1F1A17" stroke-width="1.644" stroke-linecap="round" stroke-linejoin="round" stroke-miterlimit="10" d="M201.964 259.974h-72.342v-39.46h72.342v39.46h0z"/><path fill="none" stroke="#1F1A17" stroke-width="1.827" stroke-linecap="round" stroke-linejoin="round" stroke-miterlimit="10" d="M25.126 163.517h281.333"/><g><path d="M137.02 247.508h1.57v-5.841h2.153v-1.325h-5.871v1.32h2.148v5.846zM141.566 247.508h1.576v-2.795h1.576c.397 0 .683.08.863.25.176.177.287.453.332.834.03.286.06.587.09.893.025.146.045.291.075.432.02.14.05.27.09.391h1.576c-.07-.1-.12-.23-.15-.381-.02-.07-.035-.15-.04-.23-.02-.066-.03-.141-.04-.222-.035-.341-.06-.627-.076-.863a2.767 2.767 0 00-.24-1.044c-.156-.316-.422-.522-.804-.632v-.02c.763-.342 1.145-.944 1.14-1.797-.005-.562-.196-1.029-.562-1.4-.372-.377-.884-.567-1.536-.572h-3.864l-.006 7.156zm1.581-5.937h1.727c.717-.005 1.079.321 1.084.989-.005.698-.367 1.034-1.084 1.024h-1.727v-2.013zM148.06 247.508h1.592l.562-1.6h2.68l.537 1.595h1.636l-2.68-7.166h-1.611l-2.715 7.171zm3.499-5.4h.02l.908 2.635h-1.857l.929-2.635zM155.704 247.508h1.476v-4.798h.02l2.986 4.798h1.57v-7.166h-1.475v4.808h-.02l-2.991-4.808h-1.57v7.166zM162.68 245.135c.02.878.331 1.515.934 1.927.587.416 1.294.622 2.117.622.98-.005 1.717-.226 2.224-.662.502-.427.753-.974.753-1.637-.005-.411-.09-.742-.251-1.003a1.878 1.878 0 00-.613-.613 2.795 2.795 0 00-.707-.33 4.99 4.99 0 00-.557-.141c-.869-.216-1.45-.392-1.742-.522a.763.763 0 01-.311-.241.535.535 0 01-.09-.316c.005-.301.125-.517.356-.643.216-.115.457-.17.723-.17.386-.01.717.06.978.21.261.161.407.452.432.874h1.53c-.014-.828-.3-1.426-.863-1.782-.557-.351-1.224-.522-2.007-.522-.678 0-1.285.176-1.817.532-.562.361-.848.903-.863 1.631 0 .331.065.607.19.833.121.231.282.422.487.572.206.146.437.271.693.372.256.105.512.195.768.26.557.121 1.044.257 1.465.402.211.075.377.17.497.291a.7.7 0 01.17.492.67.67 0 01-.13.432.898.898 0 01-.35.276 1.7 1.7 0 01-.453.145 2.97 2.97 0 01-.461.04c-.437 0-.803-.105-1.104-.31-.317-.206-.477-.543-.487-1.01l-1.51-.01zM169.641 247.508h1.576v-2.57h1.656c.883-.014 1.52-.255 1.917-.727.377-.447.562-.974.562-1.57 0-.613-.185-1.145-.562-1.597-.396-.456-1.034-.687-1.917-.702h-3.237v7.166zm1.576-5.937h1.224c.387-.005.708.055.97.19.27.141.406.438.41.884-.004.442-.14.733-.41.873-.121.08-.267.136-.433.161-.165.025-.346.04-.537.04h-1.224v-2.148zM176.035 243.955c.005 1.06.316 1.937.933 2.635.618.713 1.48 1.079 2.59 1.094 1.124-.015 1.992-.376 2.6-1.094.607-.698.913-1.57.923-2.63-.005-1.089-.311-1.992-.923-2.7-.608-.708-1.47-1.069-2.6-1.084-1.11.015-1.972.376-2.59 1.084-.617.708-.923 1.606-.933 2.695zm1.576 0c-.005-.657.145-1.224.451-1.706.307-.492.803-.743 1.501-.753.708.015 1.215.266 1.516.753.286.482.431 1.049.431 1.706 0 .617-.14 1.164-.431 1.646-.301.487-.808.738-1.516.753-.698-.015-1.194-.26-1.5-.748a2.901 2.901 0 01-.452-1.65zM184.145 247.508h1.576v-2.795h1.57c.397 0 .683.085.864.25.176.172.286.453.336.834.03.286.06.587.09.893.026.146.046.291.076.432.02.14.05.27.09.391h1.576c-.07-.1-.12-.23-.15-.381-.02-.07-.036-.15-.04-.23a.96.96 0 01-.04-.222c-.036-.341-.061-.627-.076-.863a2.675 2.675 0 00-.241-1.044c-.15-.316-.422-.522-.803-.632v-.02c.763-.342 1.144-.944 1.134-1.797-.01-.562-.195-1.029-.562-1.4-.371-.377-.883-.567-1.536-.572h-3.869v7.156zm1.581-5.937h1.726c.718-.005 1.08.326 1.084.989-.01.698-.366 1.039-1.084 1.024h-1.726v-2.013zM192.988 247.508h1.57v-5.841h2.154v-1.325h-5.872v1.32h2.148v5.846zM150.966 257.546h1.576v-7.167h-1.58l.004 7.167zM153.928 257.546h1.475v-4.798h.02l2.986 4.798h1.571v-7.167h-1.475v4.808h-.02l-2.992-4.808h-1.57l.005 7.167zM161.355 257.546h3.092c1.094-.005 1.907-.357 2.449-1.044.537-.663.803-1.52.803-2.58-.01-1.19-.316-2.083-.924-2.67-.602-.582-1.375-.873-2.328-.873h-3.092v7.167zm1.581-5.842h1.124c.778.005 1.32.22 1.626.642.301.422.447 1 .442 1.727 0 .386-.045.722-.146.993-.09.282-.225.502-.401.673-.16.17-.346.291-.557.361-.221.08-.452.126-.683.126h-1.405v-4.522zM168.788 257.546h5.44v-1.325h-3.86v-1.762h3.469v-1.224h-3.468v-1.536h3.784v-1.325h-5.36v7.172zM174.544 257.546h1.777l1.596-2.48 1.566 2.48h1.877l-2.5-3.744 2.299-3.423h-1.726l-1.456 2.289-1.41-2.289h-1.822l2.309 3.413-2.51 3.754z"/></g><g><path fill="none" stroke="#1F1A17" stroke-width="2.73644929" stroke-linecap="round" stroke-linejoin="round" stroke-miterlimit="10" d="M22.386 163.517l142.494 141.58 141.58-141.58L164.88 22.166 22.386 163.517z"/></g><path fill="#DA251D" d="M231.56 190.92h5.479v-20.096h-5.48v20.096zM240.693 190.919h5.48v-20.095h-5.48v20.095zM222.425 190.92h5.48v-20.096h-5.48v20.096z"/><path d="M177.105 269.016h-19.273v4.98h13.758c-5.166 6.272-8.123 13.425-8.873 21.454h5.736c.057-3.726.818-7.654 2.307-11.787 1.45-4.132 3.565-7.483 6.345-10.053v-4.594z"/><g transform="translate(-68.11 210.59) scale(.54894)"><path d="M410.378-168.796l-28.78 49.873c26.197 15.128 56.021 15.127 82.219 0l-28.777-49.872-.555.368c-.678.369-1.416.736-2.153 1.045-.737.308-1.475.614-2.274.861-.801.246-1.537.43-2.338.614-.802.185-1.599.308-2.459.369a32.8 32.8 0 01-2.522.123c-.86 0-1.66-.062-2.523-.122a17.31 17.31 0 01-2.459-.369c-.8-.185-1.599-.368-2.337-.615-.8-.247-1.538-.492-2.274-.861a23.82 23.82 0 01-2.152-1.045 4.814 4.814 0 01-.616-.369zM381.596-261.347c-26.197 15.127-41.079 40.957-41.078 71.211h57.558c0-.86.061-1.722.124-2.521.061-.799.247-1.662.368-2.459.185-.801.371-1.599.616-2.338.246-.799.491-1.536.859-2.275a23.67 23.67 0 011.046-2.151c.37-.677.8-1.355 1.23-2.031.431-.676.923-1.291 1.415-1.906s1.046-1.168 1.598-1.722a21.843 21.843 0 011.783-1.598c.615-.493 1.229-.985 1.906-1.414.492-.309.983-.615 1.477-.922l-28.902-49.874zM463.816-261.347l-28.779 49.873c.491.308.982.553 1.475.922.676.431 1.292.922 1.907 1.414.615.492 1.167 1.046 1.783 1.599a41.89 41.89 0 011.601 1.722c.491.616.982 1.228 1.413 1.907.43.675.861 1.354 1.229 2.03.37.676.738 1.412 1.046 2.151.308.74.614 1.477.861 2.275.244.801.429 1.537.614 2.337.185.799.31 1.599.37 2.46.06.8.121 1.66.121 2.521h57.561c-.121-30.255-15.005-56.083-41.202-71.211z"/><circle cx="422.676" cy="-190.135" r="16.419"/></g></svg>