<svg viewBox="0 0 226.94 227.535" id="Class_9" xmlns="http://www.w3.org/2000/svg"><path fill="#FFF" d="M.965 114.235L113.31 1.889l112.194 112.194L113.16 226.429z"/><path fill="#010101" stroke="#010101" stroke-width=".14" stroke-linejoin="round" stroke-miterlimit="10" d="M1.263 113.455L.07 114.697l6.109 6.115 1.194-1.263-6.11-6.094zm12.195 12.128l-1.17 1.243 6.11 6.115 1.17-1.242-6.11-6.116zm12.217 12.134l-1.169 1.263 6.108 6.09 1.17-1.243-6.109-6.11zm12.219 12.153l-1.193 1.24 6.109 6.088 1.193-1.242-6.109-6.086zm12.194 12.199l-1.169 1.241 6.108 6.04 1.169-1.266-6.108-6.015zm12.219 12.13l-1.17 1.24 6.086 6.04 1.193-1.239-6.109-6.041zm12.217 12.128l-1.194 1.266 6.11 6.016 1.192-1.241-6.108-6.041zm12.195 12.152l-1.169 1.242 6.109 6.017 1.169-1.242-6.109-6.017zm12.219 12.13l-1.17 1.241 6.087 6.111 1.194-1.264-6.111-6.088zm12.221 12.129l-1.194 1.24 2.913 2.842.566.645 3.864-3.891-1.234-1.172-3.266 3.249.637.548.626-.621-2.912-2.84zm11.023-6.448l1.245 1.172 6.027-6.09-1.234-1.192-6.038 6.11zm12.148-12.2l1.242 1.169 6.109-6.039-1.265-1.17-6.086 6.04h0zm12.197-12.129l1.263 1.17 6.078-6.111-1.233-1.171-6.108 6.112zm12.146-12.223l1.233 1.194 6.109-6.113-1.233-1.169-6.109 6.088zm12.218-12.201l1.233 1.194 6.108-6.042-1.264-1.193-6.077 6.041zm12.185-12.129l1.266 1.169 6.019-6.087-1.245-1.194-6.04 6.112zm12.148-12.201l1.245 1.171 6.108-6.113-1.244-1.17-6.109 6.112zm12.217-12.151l1.244 1.193 6.109-6.111-1.264-1.173-6.089 6.091h0zm12.199-12.206l1.265 1.194 5.966-5.965-1.334-1.313-1.246 1.243.699.688.617-.619-.617-.555-5.35 5.327zm-1.457-10.955l1.264-1.244-6.107-6.085-1.266 1.244 6.109 6.085zm-12.198-12.199l1.244-1.244-6.038-6.045-1.234 1.274 6.028 6.015zm-12.145-12.13l1.242-1.243-6.109-6.115-1.242 1.243 6.109 6.115zm-12.218-12.199l1.265-1.263-6.11-6.095-1.265 1.243 6.11 6.115zm-12.188-12.2l1.234-1.264-6.037-6.024-1.235 1.243 6.038 6.045zm-12.147-12.159l1.233-1.232-6.107-6.116-1.233 1.264 6.107 6.084zm-12.217-12.2l1.233-1.242-6.079-6.106-1.264 1.264 6.11 6.084zM132.923 22.68l1.266-1.244-6.109-6.105-1.245 1.244 6.088 6.105zm-12.196-12.201l1.243-1.263-6.108-6.083-1.244 1.231 6.109 6.115zm-10.955-3.678l-1.264-1.264-6.109 6.116 1.265 1.243 6.108-6.095zM97.553 19.01l-1.242-1.243-6.108 6.015 1.242 1.263 6.108-6.035zM85.334 31.139l-1.24-1.243-6.109 6.034 1.241 1.244 6.108-6.035zM73.141 43.268l-1.264-1.243-6.11 6.034 1.265 1.244 6.109-6.035zM60.922 55.417l-1.241-1.263-6.109 6.104 1.24 1.244 6.11-6.085zM48.705 67.546l-1.241-1.244-6.109 6.085 1.241 1.273 6.109-6.114zM36.51 79.675l-1.265-1.244-6.108 6.116 1.265 1.243 6.108-6.115zm-12.218 12.15l-1.24-1.264-6.11 6.115 1.242 1.243 6.108-6.094zm-12.291 12.128l-1.242-1.242-6.108 6.095 1.266 1.243 6.084-6.096zM112.877 211.85l.497.478.546-.476 97.273-97.226.476-.547-98.295-98.273-.496.576-97.822 97.224-.548.475.549.546 97.82 97.223zm-96.77-98.244l-.55.474.55.547 97.813-97.223-.546-.546-.496.546 97.265 97.223.476-.547-.477-.475-97.265 97.218.498.478.546-.477-97.814-97.218z"/><g fill="#010101" stroke="#010101" stroke-width=".14" stroke-linejoin="round" stroke-miterlimit="10"><path d="M25.341 89.681v23.773l-23.6-.071 23.6-23.702zM41.092 114.152V73.995L57.39 57.418v56.734H41.092zM73.068 114.152V42.309l15.75-17.193v89.037h-15.75zM105.121 113.454V9.287l7.565-9.218 8.182 8.601.001 104.784h-15.748zM152.22 113.454l.001-72.459-15.676-16.527v88.986h15.675zM184.897 113.455V73.509l-16.303-16.303v56.248l16.303.001zM201.262 89.792v23.663l23.798.15-23.798-23.813z"/></g><g fill="#010101" stroke="#010101" stroke-width=".14" stroke-linejoin="round" stroke-miterlimit="10"><path d="M104.908 197.429h16.3l-.001-2.578-16.3-.001.001 2.579zM116.003 178.901l-.071-.953-.263-.838-.436-.691-.616-.549-.698-.287-.828-.071-.769.072-.688.286-.546.478-.364.691-.262.836-.071.979.07.885.263.762.436.622.546.501.688.263.839.071.839-.071.617-.264.547-.499.436-.55.262-.766.069-.907zm.07 4.726l-.698.552-.829.429-.91.263-1.021.072-1.265-.143-1.172-.264-.981-.503-.901-.764-.698-.81-.546-1.053-.263-1.17-.141-1.265.141-1.385.333-1.241.546-1.1.77-.978.97-.764 1.052-.55 1.244-.358 1.386-.07 1.598.143 1.314.429 1.194.74.949.979.769 1.313.546 1.529.354 1.814.071 2.076-.07 2.221-.355 2.006-.616 1.671-.769 1.386-1.021 1.099-1.275.763-1.445.501-1.649.19-1.457-.142-1.335-.406-1.102-.764-.829-.908-.558-1.17-.211-1.313h3.671l.223.765.474.548.688.334.911.073.839-.12.688-.358.545-.693.436-.906.263-1.24.142-1.458z"/></g></svg>