<svg viewBox="0 0 32 32" id="Account-PreferenceCenter" xmlns="http://www.w3.org/2000/svg"><path d="M18.153 0c.489 0 .906.353.986.836l.628 3.768c.562.186 1.106.412 1.627.675l3.109-2.22a1 1 0 011.288.107l3.045 3.045a1 1 0 01.107 1.288l-2.221 3.109c.263.522.489 1.065.675 1.627l3.768.628a1 1 0 01.836.986v4.306a.999.999 0 01-.836.986l-3.768.628a11.927 11.927 0 01-.675 1.627l2.221 3.109a1 1 0 01-.107 1.288l-3.045 3.045a1 1 0 01-1.288.107l-3.109-2.221a11.98 11.98 0 01-1.627.675l-.628 3.768a1 1 0 01-.986.836h-4.306a.999.999 0 01-.986-.836l-.628-3.768a11.927 11.927 0 01-1.627-.675l-3.109 2.221a1 1 0 01-1.288-.107l-3.045-3.045a1 1 0 01-.107-1.288l2.22-3.109a11.98 11.98 0 01-.675-1.627l-3.768-.628a1 1 0 01-.836-.986v-4.306c0-.489.353-.906.836-.986l3.768-.628c.186-.562.412-1.106.675-1.627l-2.22-3.109a1 1 0 01.107-1.288l3.045-3.045a1 1 0 011.288-.107l3.109 2.22a11.98 11.98 0 011.627-.675l.628-3.768A1 1 0 0113.847 0h4.306zm-.848 2h-2.611l-.687 4.123-1.147.379a9.8 9.8 0 00-1.024.403l-.33.159-1.079.544-3.404-2.431-1.846 1.846 2.431 3.404-.544 1.079a10.01 10.01 0 00-.44 1.008l-.122.346-.379 1.147-4.124.687v2.611l4.124.688.379 1.147a9.8 9.8 0 00.403 1.024l.159.33.544 1.079-2.431 3.403 1.846 1.846 3.404-2.43 1.079.544c.328.165.664.312 1.008.44l.346.122 1.147.379.687 4.123h2.611l.688-4.123 1.147-.379a9.8 9.8 0 001.024-.403l.33-.159 1.079-.544 3.403 2.43 1.846-1.846-2.43-3.403.544-1.079c.165-.328.312-.664.44-1.008l.122-.346.379-1.147 4.122-.688v-2.611l-4.122-.687-.379-1.147a9.8 9.8 0 00-.403-1.024l-.159-.33-.544-1.079 2.43-3.404-1.846-1.846-3.403 2.431-1.079-.544a10.01 10.01 0 00-1.008-.44l-.346-.122-1.147-.379L17.305 2zM16 9a7 7 0 110 14 7 7 0 010-14zm0 2a5 5 0 10.001 10.001A5 5 0 0016 11z"/></svg>