<svg viewBox="0 0 105.186 104.586" id="Class_6.2" xmlns="http://www.w3.org/2000/svg"><path fill="#FFF" d="M104.35 52.284l-52.07 52.071-52.002-52L52.35.282z"/><path stroke="#000" stroke-width=".065" stroke-linejoin="round" stroke-miterlimit="10" d="M.415 51.993l-.553.576 2.832 2.833.553-.586-2.832-2.823zm5.652 5.621l-.543.575 2.832 2.836.542-.576-2.831-2.835zm5.663 5.625l-.542.585 2.831 2.822.542-.576-2.831-2.831zm5.663 5.632l-.553.574 2.831 2.822.555-.576-2.833-2.82zm5.652 5.654l-.541.575 2.831 2.801.542-.586-2.832-2.79zm5.663 5.621l-.542.576 2.82 2.799.553-.574-2.831-2.801zm5.664 5.624l-.554.586 2.833 2.787.553-.574-2.832-2.799zm5.652 5.632l-.543.574 2.832 2.789.542-.576-2.831-2.787zm5.663 5.619l-.542.579 2.82 2.83.556-.584-2.834-2.825zm5.665 5.624l-.555.574 1.352 1.318.262.298 1.791-1.803-.572-.544-1.513 1.507.295.253.291-.288-1.351-1.315zm5.108-2.989l.576.543 2.794-2.822-.571-.552-2.799 2.831zm5.631-5.655l.575.542 2.832-2.799-.587-.542-2.82 2.799h0zm5.653-5.622l.586.543 2.816-2.832-.571-.543-2.831 2.832zm5.629-5.665l.573.556 2.83-2.836-.571-.541-2.832 2.821zm5.663-5.655l.571.555 2.833-2.801-.586-.554-2.818 2.8zm5.648-5.621l.588.543 2.789-2.822-.578-.553-2.799 2.832zm5.63-5.655l.578.542 2.832-2.833-.578-.542-2.832 2.833zm5.663-5.633l.577.555 2.83-2.833-.584-.545-2.823 2.823h0zm5.654-5.656l.585.554 2.767-2.766-.618-.608-.577.578.324.317.286-.287-.286-.257-2.481 2.469zm-.675-5.078l.586-.576-2.831-2.82-.587.577 2.832 2.819zm-5.654-5.654l.576-.577-2.798-2.801-.572.591 2.794 2.787zm-5.629-5.622l.575-.577-2.832-2.833-.575.576 2.832 2.834zm-5.663-5.654l.587-.586-2.832-2.825-.586.577 2.831 2.834zm-5.648-5.654l.571-.585-2.8-2.792-.57.576 2.799 2.801zm-5.631-5.636l.572-.572-2.831-2.834-.571.586 2.83 2.82zm-5.663-5.654l.572-.577-2.816-2.83-.587.586 2.831 2.821zm-5.63-5.623l.588-.577-2.832-2.83-.578.577 2.822 2.83zm-5.652-5.655l.576-.585-2.831-2.82-.577.571 2.832 2.834zm-5.078-1.703l-.586-.586-2.831 2.834.586.575 2.831-2.823zm-5.663 5.657l-.575-.576-2.831 2.787.575.585 2.831-2.796zm-5.664 5.622l-.573-.576-2.833 2.797.574.576 2.832-2.797zm-5.651 5.622l-.586-.577-2.832 2.796.585.578 2.833-2.797zm-5.663 5.631l-.575-.584-2.832 2.829.574.577 2.833-2.822zm-5.663 5.621l-.575-.576-2.832 2.821.575.589 2.832-2.834zm-5.652 5.622l-.586-.576-2.832 2.835.587.576 2.831-2.835zm-5.664 5.631l-.574-.585-2.832 2.833.575.576 2.831-2.824zm-5.696 5.622l-.575-.577-2.832 2.825.587.576 2.82-2.824zM52.147 97.598l.229.223.254-.221 45.084-45.063.221-.254-45.558-45.55-.229.267-45.34 45.063-.254.22.254.253 45.339 45.062zM7.295 52.063l-.255.22.255.253L52.631 7.474l-.253-.253-.229.252L97.23 52.537l.219-.255-.219-.219-45.083 45.06.23.221.253-.221-45.335-45.06z"/><path stroke="#000" stroke-width=".067" stroke-linejoin="round" stroke-miterlimit="10" d="M51.08 86.396l.034.457.126.403.209.333.296.264.335.139.397.033.371-.034.331-.138.263-.229.175-.333.125-.4.034-.471-.033-.426-.126-.365-.21-.3-.262-.241-.331-.126-.402-.034-.403.035-.296.126-.263.239-.209.265-.125.369-.036.434zm-.035-2.271l.336-.266.398-.205.438-.127.491-.033.607.066.563.127.473.242.433.366.335.39.263.506.126.563.067.607-.067.666-.159.597-.263.528-.371.471-.466.366-.506.264-.597.172-.666.034-.77-.068-.631-.205-.574-.355-.456-.471-.369-.631-.263-.735-.171-.872-.033-.997.033-1.067.171-.964.295-.803.37-.666.49-.526.613-.367.694-.24.793-.092.7.067.642.195.529.366.397.437.269.563.103.631h-1.764l-.107-.367-.229-.264-.331-.16-.438-.035-.402.057-.332.174-.262.332-.209.437-.126.596-.067.696z"/><g><path d="M48.638 30.98a6.35 6.35 0 017.908 0 6.353 6.353 0 001.382-1.741 8.574 8.574 0 00-10.671 0 6.03 6.03 0 001.381 1.741z"/><path d="M61.99 30.524c.016-.097.03-.193.043-.29.702-5.214-2.956-10.009-8.17-10.711v.354a6.669 6.669 0 01-.953 13.207v.987a1.907 1.907 0 011.469 2.543l.854.494a6.667 6.667 0 0111.913 5.778l.307.178c.037-.091.073-.182.107-.273 1.849-4.926-.645-10.418-5.57-12.267z"/><path d="M54.92 41.859c.148.731.425 1.432.816 2.066a8.572 8.572 0 005.336-9.241 6.043 6.043 0 00-2.199.326 6.35 6.35 0 01-3.953 6.849z"/><path d="M57.787 46.639a6.668 6.668 0 01-2.871-8.982l-.854-.493a1.906 1.906 0 01-2.937 0l-.854.493a6.668 6.668 0 01-10.961 7.428l-.307.177c.06.078.121.154.183.229 3.341 4.064 9.344 4.65 13.407 1.309.076.063.152.123.229.183 4.165 3.215 10.146 2.444 13.361-1.721l-.308-.177a6.665 6.665 0 01-8.088 1.554zM40.738 35.103a6.667 6.667 0 019.214 2.004l.855-.494a1.905 1.905 0 011.468-2.543v-.987a6.667 6.667 0 01-.953-13.206v-.355a9.67 9.67 0 00-.29.044c-5.189.861-8.698 5.767-7.837 10.957a9.526 9.526 0 00-5.463 12.539l.307-.178a6.666 6.666 0 012.699-7.781z"/><path d="M44.114 34.684a8.572 8.572 0 005.336 9.241 6.03 6.03 0 00.817-2.066 6.35 6.35 0 01-3.954-6.849 6.37 6.37 0 00-2.199-.326z"/></g></svg>