<svg viewBox="0 0 24 24" id="contact-support" xmlns="http://www.w3.org/2000/svg"><path d="M20.73 9.126v-.923c0-2.208-.831-4.26-2.337-5.783C16.849.857 14.726 0 12.41 0h-.81C9.286 0 7.163.857 5.619 2.42 4.112 3.943 3.281 5.995 3.281 8.203v.923C1.453 9.242 0 10.674 0 12.424v1.442c0 1.82 1.576 3.302 3.511 3.302H5.49c.354 0 .644-.272.644-.605V9.721c0-.333-.29-.605-.644-.605h-.922v-.913c0-3.988 3.024-6.993 7.028-6.993h.81c4.01 0 7.028 3.005 7.028 6.993v.913h-.922c-.354 0-.644.272-.644.605v6.837c0 .333.29.605.644.605h.9c-.262 3.156-2.573 3.887-3.645 4.054-.295-.852-1.147-1.467-2.15-1.467h-1.608c-1.244 0-2.257.953-2.257 2.122 0 1.17 1.013 2.128 2.257 2.128h1.614c1.04 0 1.913-.666 2.176-1.563a6.353 6.353 0 002.182-.7c1.163-.641 2.54-1.947 2.723-4.579C22.542 17.052 24 15.615 24 13.861v-1.443c.005-1.744-1.442-3.181-3.27-3.292zM4.857 15.953H3.522c-1.228 0-2.225-.938-2.225-2.092v-1.443c0-1.154.997-2.092 2.225-2.092h1.335v5.627zm8.765 6.837h-1.614c-.536 0-.97-.408-.97-.913 0-.504.434-.912.97-.912h1.614c.536 0 .97.408.97.912 0 .505-.434.913-.97.913zm9.097-8.93c0 1.155-.997 2.093-2.225 2.093H19.16v-5.627h1.335c1.228 0 2.225.938 2.225 2.092v1.443z"/></svg>