<svg viewBox="0 0 24 24" id="contact-phone" xmlns="http://www.w3.org/2000/svg"><path d="M4.28 1.295V1.29c-.369 0-.738-.005-1.107 0-.562.01-1.043.212-1.423.633-.303.335-.51.727-.471 1.18.07.829.153 1.66.292 2.48.42 2.472 1.292 4.783 2.57 6.94a20.689 20.689 0 004.774 5.551 20.79 20.79 0 006.498 3.604c1.152.391 2.33.687 3.535.85.643.088 1.29.152 1.937.19.861.05 1.81-.698 1.827-1.826.011-.76.002-1.52.002-2.28 0-.848-.615-1.626-1.448-1.789-.416-.081-.843-.11-1.265-.16-.657-.077-1.317-.138-1.972-.229-.71-.099-1.315.079-1.823.596-.818.833-1.646 1.658-2.468 2.488-.057.058-.1.086-.188.042a20.345 20.345 0 01-3.73-2.372 19.72 19.72 0 01-5.346-6.68c-.058-.119-.037-.18.05-.265.848-.84 1.693-1.686 2.539-2.53.37-.368.58-.815.548-1.335-.04-.63-.125-1.256-.194-1.883-.054-.492-.128-.983-.166-1.477-.07-.905-.839-1.681-1.746-1.72-.408-.018-.817-.003-1.225-.003m1.691 9.313c.364.706.795 1.356 1.25 1.992a17.96 17.96 0 003.025 3.283 19.495 19.495 0 003.048 2.106c.085.048.133.04.2-.028.653-.659 1.302-1.32 1.965-1.967.643-.627 1.427-.925 2.32-.864.717.049 1.43.152 2.143.232.47.053.942.1 1.41.166 1.332.19 2.429 1.292 2.622 2.63.028.19.042.384.043.576.006.677 0 1.353.003 2.03.003.858-.27 1.617-.852 2.245-.58.626-1.302.987-2.164.99-.49.003-.982-.04-1.47-.098a21.924 21.924 0 01-4.37-.967c-3.677-1.232-6.824-3.278-9.434-6.146-2.47-2.713-4.152-5.855-5.067-9.405a21.354 21.354 0 01-.637-4.064A3.124 3.124 0 012.666.057c.216-.032.437-.048.655-.05.703-.004 1.406-.017 2.107.006 1.583.05 2.816 1.136 3.074 2.7.078.47.115.949.17 1.423.066.58.13 1.159.197 1.738.121 1.056-.148 1.981-.912 2.743l-1.92 1.919-.066.072" fill="#000" fill-rule="evenodd"/></svg>