<svg viewBox="0 0 23 24" id="fragranceFamily" xmlns="http://www.w3.org/2000/svg"><g fill-rule="nonzero" fill="none"><path d="M14.567 16.8C13.1 15.12 11.5 14.04 11.5 14.04s-1.6 1.08-3.067 2.76c-1.466 1.68-1.733 3.96 0 5.52.8.72 2 1.08 3.067 1.08 1.067 0 2.267-.36 3.067-1.08 1.733-1.56 1.466-3.84 0-5.52z"/><path d="M19.767 5.64C17.9 3.6 16.033 1.8 14.433.6L11.5 3.12 8.567.48C7.1 1.8 5.233 3.48 3.233 5.52-.9 10.08-1.3 16.2 3.233 20.28c1.334 1.2 2.934 2.04 4.534 2.52-.667-.36-1.334-.84-1.867-1.44-3.067-3-2.8-7.56 0-10.92 2.8-3.24 5.6-5.4 5.6-5.4s2.8 2.16 5.467 5.52c2.8 3.36 3.066 7.92 0 10.92-.534.6-1.2 1.08-1.867 1.44 1.733-.48 3.2-1.32 4.533-2.52 4.667-4.08 4.134-10.2.134-14.76z"/></g></svg>