<svg viewBox="0 0 41 41" id="3d-play" xmlns="http://www.w3.org/2000/svg"><path class="aaa" d="M40.982 20.491c0-4.085-4.547-7.538-11.3-9.191C28.03 4.547 24.572 0 20.491 0s-7.538 4.553-9.194 11.313c-.956.238-1.879.512-2.759.825a.732.732 0 00.49 1.38 26.989 26.989 0 011.917-.591c-.083.45-.156.9-.225 1.351l.038-.005a41.246 41.246 0 00.118 13.272h-.018c.029.161.056.326.087.488v.009c-5.621-1.545-9.479-4.384-9.481-7.551 0-1.669 1.1-3.334 3.127-4.761l-.234 1.2a.733.733 0 00.58.858.715.715 0 00.14.015.734.734 0 00.72-.591l.59-3.047a.729.729 0 00-.579-.856l-3.047-.591a.735.735 0 00-.872.559.713.713 0 000 .29.733.733 0 00.562.584l.034.005 1.431.278c-2.527 1.729-3.919 3.853-3.919 6.057 0 4.083 4.547 7.538 11.3 9.193 1.656 6.751 5.11 11.3 9.191 11.3 2.269 0 4.451-1.475 6.212-4.141l.176 1.457a.732.732 0 001.453-.176l-.374-3.082a.731.731 0 00-.814-.64l-3.084.375a.731.731 0 00-.637.814.732.732 0 00.814.638l1.215-.147c-1.473 2.211-3.214 3.434-4.963 3.434-3.167 0-6-3.86-7.551-9.476a40.1 40.1 0 007.551.7 39.961 39.961 0 007.566-.7c-.18.657-.374 1.3-.591 1.915a.7.7 0 00-.04.288.73.73 0 001.418.2c.314-.878.586-1.8.825-2.759 6.76-1.656 11.313-5.11 11.313-9.194zm-10.954 7.555a39.513 39.513 0 00.707-7.553 39.936 39.936 0 00-.7-7.549c5.619 1.547 9.477 4.384 9.479 7.551s-3.861 6.005-9.486 7.551zm-17.09-17.092c1.544-5.623 4.384-9.488 7.553-9.488s6 3.858 7.551 9.477a27.561 27.561 0 00-.678-.12v.027a39.923 39.923 0 00-6.876-.6 39.5 39.5 0 00-6.6.573l.015-.04a34.76 34.76 0 00-.965.171zm15.5 1.593a37.268 37.268 0 01.836 7.947 37.569 37.569 0 01-.822 7.941 37.271 37.271 0 01-7.959.838 37.268 37.268 0 01-7.947-.834l-.005-.029a38.192 38.192 0 01.005-15.875 38.516 38.516 0 0115.89.011z"/></svg>