<svg viewBox="0 0 54 58" id="Live-Chat-all" xmlns="http://www.w3.org/2000/svg"><g fill="none" fill-rule="evenodd"><path stroke="#C3C3C3" fill="#FFF" d="M1 1h52v56H1z"/><path d="M28 11.434c-4.923 0-9 3.267-9 7.409 0 2.28 1.295 4.13 3.214 5.453l-1.526 3.684c-.137.322.278.708.589.55l4.794-2.586c.565.117 1.218.308 1.929.308 4.923 0 9-3.268 9-7.41 0-4.141-4.077-7.408-9-7.408zm0 .857c4.546 0 8.143 2.979 8.143 6.552 0 3.573-3.597 6.551-8.143 6.551-.578 0-1.24-.196-1.902-.321a.432.432 0 00-.281.04l-3.87 2.077 1.178-2.867a.443.443 0 00-.174-.523c-1.922-1.225-3.094-2.886-3.094-4.957.052-4.437 4.952-6.626 8.143-6.552z" fill="#000" fill-rule="nonzero"/><text font-family="Roboto-Regular, Roboto" font-size="12" fill="#000" transform="translate(1 1)"><tspan x="13" y="45">Chat</tspan></text></g></svg>