<svg viewBox="0 0 32 32" id="screwdriver-and-wrench" xmlns="http://www.w3.org/2000/svg"><path d="M27.783 7.936a6.377 6.377 0 01-1.379 6.955c-2.071 2.071-5.201 2.395-7.634 1.022l-1.759 1.921 1.255 1.26.75-.75a.98.98 0 011.388 0l6.082 6.144a.98.98 0 010 1.388l-2.776 2.776a.98.98 0 01-1.388 0l-6.082-6.144a.98.98 0 010-1.388l.685-.685-1.196-1.199-8.411 9.189a1.962 1.962 0 01-2.776 0l-.694-.694a1.962 1.962 0 010-2.776l9.582-8.025-6.364-6.381-2.01-.001-2.326-3.74 1.872-1.875 3.825 2.341.025 1.968 6.438 6.463 1.873-1.568c-1.831-2.496-1.64-6.012.616-8.268a6.382 6.382 0 016.925-1.396L20.18 8.54l3.471 3.471 4.132-4.075zM6.15 25.934a.982.982 0 10-1.388 1.39.982.982 0 001.388-1.39z"/></svg>