<svg viewBox="0 0 24 24" id="shopping-cart" xmlns="http://www.w3.org/2000/svg"><path d="M18 22.5a1.5 1.5 0 100-3 1.5 1.5 0 000 3zm0 1.5a3 3 0 110-6 3 3 0 010 6zm-9-1.5a1.5 1.5 0 100-3 1.5 1.5 0 000 3zm-3.688-18L6.469 10h14.24l1.546-5.5H5.312zM4.996 3H23.25a.75.75 0 01.677 1.074L21.99 10.96a.75.75 0 01-.817.541H6.784L7.31 14h13.94a.75.75 0 110 1.5H6.85a.748.748 0 01-.557-.248.748.748 0 01-.356-.493L3.147 1.5H.75a.75.75 0 010-1.5h3c.175 0 .337.06.464.161a.747.747 0 01.277.44L4.996 3zM9 24a3 3 0 110-6 3 3 0 010 6z"/></svg>