<svg viewBox="0 0 24 24" id="account" xmlns="http://www.w3.org/2000/svg"><path d="M12.06 16.757c4.75 0 9.079 2.328 11.55 6.07l.183.283-.849.53c-2.255-3.615-6.359-5.883-10.884-5.883-4.492 0-8.566 2.236-10.829 5.796l-.17.277-.859-.514c2.406-4.023 6.9-6.559 11.858-6.559zM12 .5c3.775 0 6.816 3.344 6.816 7.447s-3.04 7.448-6.816 7.448c-3.775 0-6.816-3.345-6.816-7.448S8.224.5 12 .5zm0 1c-3.2 0-5.816 2.877-5.816 6.447 0 3.571 2.615 6.448 5.816 6.448 3.2 0 5.816-2.877 5.816-6.448C17.816 4.377 15.2 1.5 12 1.5z"/></svg>