<svg viewBox="0 0 32 32" id="icon-spinner" xmlns="http://www.w3.org/2000/svg"><path d="M16 22a1 1 0 011 1v8a1 1 0 01-2 0v-8a1 1 0 011-1zm-4.243-1.757a.999.999 0 010 1.414L6.1 27.314A.999.999 0 114.686 25.9l5.657-5.657a.999.999 0 011.414 0zm9.9 0l5.657 5.657a.999.999 0 11-1.414 1.414l-5.657-5.657a.999.999 0 111.414-1.414zM31 15a1 1 0 010 2h-8a1 1 0 010-2h8zM9 15a1 1 0 010 2H1a1 1 0 010-2h8zM27.314 4.686a.999.999 0 010 1.414l-5.657 5.657a.999.999 0 11-1.414-1.414L25.9 4.686a.999.999 0 011.414 0zm-21.213 0l5.657 5.657a.999.999 0 11-1.414 1.414L4.687 6.1a.999.999 0 111.414-1.414zM16 0a1 1 0 011 1v8a1 1 0 01-2 0V1a1 1 0 011-1z"/></svg>