<svg viewBox="0 0 18 24" id="edit-delete" xmlns="http://www.w3.org/2000/svg"><path d="M1.286 21.333C1.286 22.8 2.443 24 3.857 24h10.286c1.414 0 2.571-1.2 2.571-2.667V8c0-1.467-1.157-2.667-2.571-2.667H3.857c-1.414 0-2.571 1.2-2.571 2.667v13.333zM5.143 8h7.714c.707 0 1.286.6 1.286 1.333V20c0 .733-.579 1.333-1.286 1.333H5.143c-.707 0-1.286-.6-1.286-1.333V9.333C3.857 8.6 4.436 8 5.143 8zM13.5 1.333l-.913-.946a1.274 1.274 0 00-.9-.387H6.313c-.334 0-.669.147-.9.387l-.913.946H1.286C.579 1.333 0 1.933 0 2.667 0 3.4.579 4 1.286 4h15.428C17.421 4 18 3.4 18 2.667c0-.734-.579-1.334-1.286-1.334H13.5z" fill="#000" fill-rule="nonzero"/></svg>