<svg version="1.0" viewBox="0 0 579 579" id="GHS04" xmlns="http://www.w3.org/2000/svg"><path d="M25.301 289.672L289.33 553.7l264.073-264.072c-88.053-87.952-175.931-176.079-264.03-263.985L25.302 289.672z" fill="#fff"/><path d="M147.66 148.012L6 289.672 147.669 431.34 289.329 573l141.687-141.688 141.688-141.688-141.64-141.64C353.165 70.086 289.403 6.344 289.375 6.344c-.029 0-63.8 63.752-141.717 141.668zm260.962 22.413l119.199 119.2L408.575 408.87 289.319 528.127 170.129 408.87 50.95 289.606l119.19-119.19c65.557-65.557 119.208-119.19 119.237-119.19.028 0 53.689 53.642 119.246 119.2z" fill="red"/><path d="M350.1 230.4c-.775-.002-1.559.035-2.05.125-.954.18-185.014 49.595-185.675 49.85-5.216 2.05-8.717 7.736-9.775 15.9-.217 1.654-.32 4.672-.225 6.6.151 3.128.56 5.791 1.325 8.9 3.118 12.662 10.996 22.61 19.425 24.5.983.217 3.292.28 4.275.1.832-.142 183.223-49.049 185.075-49.625 3.524-1.096 6.179-3.556 8.125-7.525 1.087-2.202 1.743-4.332 2.3-7.45.444-2.457.826-3.513 1.875-5.1 1.276-1.937 3.486-3.589 5.725-4.25.369-.104 9.472-2.543 20.225-5.425 10.753-2.891 19.782-5.368 20.075-5.5 4.347-1.994 5.929-8.342 3.425-13.7-1.38-2.939-3.88-5.108-6.525-5.675-.898-.189-2.268-.167-3.175.05-.416.104-9.37 2.5-19.925 5.325-10.545 2.835-19.417 5.209-19.7 5.275-.34.085-1.088.125-2.175.125-1.814-.01-2.51-.13-3.975-.725-1.833-.756-2.989-1.677-4.85-3.85-2.787-3.25-5.303-5.302-8.1-6.625-1.2-.557-2.491-.977-3.625-1.175-.52-.09-1.3-.123-2.075-.125z"/></svg>