<svg viewBox="0 0 16 16" id="shipping" xmlns="http://www.w3.org/2000/svg"><path d="M15.993 3.772a.398.398 0 00-.044-.179.423.423 0 00-.297-.216L8.18.041a.47.47 0 00-.385 0L.249 3.407A.41.41 0 000 3.759v8.466a.4.4 0 00.25.364l7.545 3.367c.003 0 .003 0 .007.003.01.004.022.007.033.014.004 0 .007.003.015.003l.033.01c.003 0 .007.004.01.004.012.003.026.003.037.007h.011L7.99 16c.015 0 .033 0 .048-.003h.01c.012 0 .026-.004.037-.007.004 0 .008-.004.011-.004l.033-.01c.004 0 .008-.003.015-.003a.117.117 0 00.033-.014c.004 0 .004 0 .007-.003l7.568-3.377a.407.407 0 00.249-.365V3.782c-.007-.003-.007-.007-.007-.01zM7.985.854l6.544 2.921-2.41 1.078-6.544-2.921L7.985.854zm0 5.842l-6.543-2.92L4.567 2.38 11.11 5.3 7.985 6.697zM.88 4.427l6.665 2.975v7.541L.88 11.968v-7.54zm7.545 10.516v-7.54l3.13-1.399v1.972c0 .223.197.406.44.406.242 0 .44-.183.44-.406V5.61l2.677-1.195v7.54l-6.687 2.989z" fill-rule="evenodd"/></svg>