<svg viewBox="0 0 40 40" id="pdf-icon" xmlns="http://www.w3.org/2000/svg"><path fill-rule="evenodd" clip-rule="evenodd" d="M26 0h1.589L27.5.089l7.5 7.5V18.75h2.75a1 1 0 011 1V31.5a1 1 0 01-1 1H35V35c0 2.761-2.066 5-4.615 5H9.615C7.066 40 5 37.761 5 35v-2.5H2.25a1 1 0 01-1-1V19.75a1 1 0 011-1H5V5c0-2.761 2.066-5 4.615-5H26zM7.308 32.5V35c0 1.38 1.033 2.5 2.307 2.5h20.77c1.274 0 2.307-1.12 2.307-2.5v-2.5H7.308zm25.384-13.75H7.308V5c0-1.38 1.033-2.5 2.307-2.5H25V9a1 1 0 001 1h6.692v8.75z"/><path d="M12.292 26.881H9.974v-1.406h2.318c.358 0 .65-.056.874-.169a1.1 1.1 0 00.494-.48 1.5 1.5 0 00.156-.691c0-.26-.052-.503-.156-.728a1.23 1.23 0 00-.494-.54c-.225-.137-.516-.205-.874-.205h-1.668V30H8.75v-8.75h3.542c.712 0 1.322.124 1.83.373.512.244.904.582 1.174 1.015.271.433.406.928.406 1.485 0 .564-.135 1.053-.406 1.466-.27.413-.662.731-1.174.956-.508.224-1.118.336-1.83.336zM19.788 30h-1.98l.012-1.406h1.968c.491 0 .905-.106 1.243-.319.337-.216.591-.53.762-.943.175-.413.262-.912.262-1.497v-.426c0-.45-.05-.844-.15-1.184a2.32 2.32 0 00-.43-.86 1.796 1.796 0 00-.707-.522c-.279-.12-.6-.18-.962-.18H17.77V21.25h2.036c.608 0 1.164.1 1.668.3.508.197.948.48 1.318.848.37.368.656.81.856 1.322.204.509.306 1.076.306 1.7v.415c0 .621-.102 1.188-.306 1.701a3.77 3.77 0 01-.856 1.322 3.811 3.811 0 01-1.318.848 4.644 4.644 0 01-1.686.294zm-.919-8.75V30h-1.874v-8.75h1.874zM27.19 21.25V30h-1.874v-8.75h1.874zm3.623 3.738v1.406h-4.136v-1.406h4.136zm.437-3.738v1.412h-4.573V21.25h4.573z" fill="#fff"/></svg>