<svg viewBox="0 0 24 21" id="personalize" xmlns="http://www.w3.org/2000/svg"><g fill-rule="nonzero"><path d="M23.073 4.45c.414-.372.469-.96.13-1.31l-2.061-2.138c-.338-.35-.938-.327-1.353.043l-.73.666 3.272 3.404.742-.666zM2.76 8.136L.578 7.013v9.316l2.182-1.134zM3.676 18.838c-.523-.13-.905-.556-.905-1.09v-1.823L.589 17.05v1.113c0 1.549 1.32 2.814 2.935 2.814H9.97v-2.094H3.96c-.087 0-.175-.033-.262-.055l-.033.011h.011zM2.76 5.595c0-.633.535-1.146 1.2-1.146h6.01V2.355H3.525C1.898 2.355.589 3.62.589 5.169v1.113l2.182 1.123v-1.81H2.76zM17.836 15.195l2.182 1.134V7.973l-2.182 1.985zM17.836 17.736c0 .633-.534 1.146-1.2 1.146h-6v2.094h6.448c1.625 0 2.934-1.265 2.934-2.814v-1.113l-2.182-1.124v1.811zM17.084 2.355h-6.448v2.094h4.55l2.269-2.05a2.03 2.03 0 00-.371-.044z"/><path d="M21.076 6.26l-10.309 9.35-5.934 2.192 2.65-5.597 10.31-9.349.73-.665 3.273 3.404z"/><path d="M9.098 13.864l-1.003-.088-.142-1.101-1.517 3.218a.684.684 0 01.48.469l3.393-1.244-1.145-.273-.066-.981z"/><path d="M17.793 2.845l-10.31 9.35-2.65 5.596 5.934-2.193 10.31-9.349.73-.665-3.272-3.404-.742.665zM6.916 16.362a.666.666 0 00-.48-.47l1.517-3.217.142 1.101.992.088.011.01.066.982 1.145.273-3.393 1.233z"/></g></svg>