<svg viewBox="0 0 165 32" id="afterpay-black" xmlns="http://www.w3.org/2000/svg"><path d="M145.125 5.012c0-3.783 4.019-6.166 7.321-4.442l.183.1 10.02 5.736c3.281 1.887 3.348 6.561.201 8.575l-.201.122-10.02 5.736c-3.275 1.891-7.353-.402-7.5-4.133l-.004-.209v-.762a.991.991 0 00-1.375-.915l-.106.052-9.186 5.276a.987.987 0 00-.11 1.639l.11.072 9.186 5.276a.992.992 0 001.474-.745l.007-.118v-1.538a.972.972 0 011.349-.9l.103.052 2.343 1.337c.281.153.46.432.496.744l.007.119v.647c0 3.783-4.019 6.166-7.322 4.442l-.183-.1-10.02-5.736c-3.281-1.887-3.348-6.575-.201-8.576l.201-.122 10.02-5.736c3.275-1.891 7.353.402 7.5 4.133l.004.209v.762a.991.991 0 001.375.915l.106-.052 9.186-5.276a.987.987 0 00.11-1.639l-.11-.072-9.186-5.276a.992.992 0 00-1.474.745l-.007.118V7.01a.972.972 0 01-1.349.9l-.103-.052-2.343-1.337a.967.967 0 01-.496-.744l-.007-.119v-.647zm-29.126 2.344l4.399 10.092L125.2 7.356h4.816l-11.644 24.051h-4.83l4.356-8.985-6.857-15.066h4.96zm-34.272-.317c4.615 0 8.237 3.795 8.237 8.812s-3.695 8.841-8.338 8.841c-2.156 0-3.925-.848-5.161-2.286v8.985h-4.327V7.354h4.198v2.214c1.265-1.567 3.148-2.53 5.391-2.53zm-73.389.015c2.185 0 4.025.963 5.29 2.458V7.356h4.198v17.079h-4.198v-2.214c-1.265 1.538-3.148 2.487-5.391 2.487C3.55 24.708 0 20.956 0 15.896c0-5.017 3.695-8.841 8.338-8.841zm41.173-.015c5.089 0 8.784 3.752 8.784 8.884 0 .374-.029.748-.101 1.093H45.098c.302 2.53 2.113 3.968 4.413 3.968 1.811 0 3.206-.848 4.025-2.214h4.413c-1.021 3.623-4.27 5.937-8.539 5.937-5.161 0-8.784-3.623-8.784-8.784s3.824-8.884 8.884-8.884zm50.344.015c2.185 0 4.025.963 5.29 2.458V7.356h4.198v17.079h-4.198v-2.214c-1.265 1.538-3.148 2.487-5.391 2.487-4.687 0-8.237-3.752-8.237-8.812 0-5.017 3.695-8.841 8.338-8.841zM29.514.369v3.306h-.949c-1.447 0-2.009.502-2.053 1.809l-.003.175v1.696h5.549V3.186h4.298v4.169h2.703v3.723h-2.703v7.576c0 1.378.383 1.937 1.705 1.981l.178.003h.848v3.795h-2.214c-3.392 0-4.748-1.435-4.813-4.731l-.003-.257v-8.367h-5.549v13.355H22.21V11.078h-2.386V7.369h2.386V5.083c0-3.464 1.601-4.657 4.976-4.713l.256-.002h2.07zm38.743 6.67a4.57 4.57 0 011.554.265l.157.062.13.061v4.356l-.19-.108-.273-.138-.113-.053-.255-.11-.288-.109c-.555-.195-1.248-.351-1.913-.259-1.452.201-2.372 1.524-2.372 3.306v10.106h-4.342V7.354h4.198v1.668h.014l.062-.103.079-.117.112-.15.069-.085.164-.185c.546-.58 1.575-1.344 3.208-1.344zM8.942 11.007c-2.559 0-4.643 2.056-4.643 4.888 0 2.803 2.085 4.888 4.643 4.888s4.643-2.013 4.643-4.888-2.085-4.888-4.643-4.888zm72.081 0c-2.559 0-4.643 2.056-4.643 4.888 0 2.803 2.085 4.888 4.643 4.888s4.643-2.113 4.643-4.888c0-2.76-2.085-4.888-4.643-4.888zm19.436 0c-2.559 0-4.643 2.056-4.643 4.888 0 2.803 2.085 4.888 4.643 4.888s4.643-2.013 4.643-4.888-2.085-4.888-4.643-4.888zm-51.02-.201c-2.113 0-3.867 1.294-4.298 3.551h8.539c-.302-2.214-2.113-3.551-4.241-3.551z"/></svg>