<svg viewBox="0 0 24 22" id="load-upload" xmlns="http://www.w3.org/2000/svg"><path d="M19.519 5.855c2.586.689 4.476 3.177 4.481 5.975a6.248 6.248 0 01-1.609 4.19c-1.046 1.167-2.453 1.865-3.958 1.975h-3.711c-.37 0-.666-.3-.666-.673 0-.374.296-.674.666-.674h3.637c2.379-.184 4.308-2.339 4.308-4.818 0-2.339-1.658-4.389-3.854-4.768a.67.67 0 01-.553-.598c-.276-2.923-2.68-5.127-5.591-5.127a5.634 5.634 0 00-5.084 3.257.667.667 0 01-.834.344c-.266-.1-.552-.15-.844-.15-1.362 0-2.472 1.122-2.472 2.499 0 .304.05.588.148.858a.682.682 0 01-.291.818 4.006 4.006 0 00-1.96 3.441c0 2.185 1.698 4.125 3.717 4.25h4.224c.37 0 .667.299.667.673a.667.667 0 01-.667.673H4.99c-1.342-.075-2.6-.718-3.553-1.805A5.755 5.755 0 010 12.409a5.37 5.37 0 012.181-4.314 4.246 4.246 0 01-.079-.798c0-2.12 1.708-3.846 3.805-3.846.247 0 .494.025.73.07a6.964 6.964 0 012.256-2.399 6.892 6.892 0 018.459.718 7.023 7.023 0 012.167 4.015zm-3.706 6.833a.606.606 0 01-.894 0l-2.284-2.403V21.33c0 .372-.282.669-.635.669-.353 0-.635-.297-.635-.669V10.285L9.08 12.688a.605.605 0 01-.447.198.624.624 0 01-.447-.198.692.692 0 010-.946l3.366-3.544A.608.608 0 0112 8c.165 0 .33.074.447.198l3.366 3.544c.25.262.25.683 0 .946z" fill-rule="nonzero"/></svg>