<svg viewBox="0 0 20 24" id="Account-RegisteredProducts" xmlns="http://www.w3.org/2000/svg"><g fill="#000" fill-rule="nonzero"><path d="M14.2 10H7.6c-.4 0-.7.3-.7.7 0 .4.3.7.7.7h6.7c.4 0 .7-.3.7-.7 0-.4-.3-.7-.8-.7zm.8-4c-.8 0-1.5-.7-1.5-1.5v-3L18 6h-3zm3 15c0 .8-.7 1.5-1.5 1.5H3c-.8 0-1.5-.7-1.5-1.5V3c0-.8.7-1.5 1.5-1.5h9v3c0 1.7 1.3 3 3 3h3V21zM13.5 0H3C1.3 0 0 1.3 0 3v18c0 1.7 1.3 3 3 3h13.5c1.7 0 3-1.3 3-3V6l-6-6z"/><path d="M5.3 10c-.4 0-.8.3-.8.7 0 .4.3.7.7.7.4 0 .7-.3.7-.7.1-.4-.2-.7-.6-.7zM5.3 16.5c-.4 0-.8.3-.8.7 0 .4.3.7.7.7.5.1.8-.2.8-.6 0-.5-.3-.8-.7-.8zM14.2 16.5H7.5c-.4 0-.7.3-.7.7 0 .4.3.7.7.7h6.7c.4 0 .7-.3.7-.7.1-.4-.3-.7-.7-.7zM5.3 13.1c-.4 0-.8.3-.8.7 0 .4.3.7.7.7.4 0 .7-.3.7-.7.1-.4-.2-.7-.6-.7zM14.2 13.1H7.6c-.4 0-.7.3-.7.7 0 .4.3.7.7.7h6.7c.4 0 .7-.3.7-.7 0-.4-.4-.7-.8-.7z"/></g></svg>