<svg viewBox="0 0 24 24" id="circle-success" xmlns="http://www.w3.org/2000/svg"><defs><path d="M12 0c6.617 0 12 5.383 12 12s-5.383 12-12 12S0 18.617 0 12 5.383 0 12 0zm.054 22.441c5.75 0 10.427-4.677 10.427-10.426 0-5.749-4.677-10.426-10.427-10.426-5.749 0-10.426 4.677-10.426 10.426 0 5.749 4.677 10.426 10.426 10.426z" id="cna"/></defs><use xmlns:xlink="http://www.w3.org/1999/xlink" xlink:href="#cna"/><path d="M10.158 15.12l-2.486-2.485a.713.713 0 10-1.01 1.01l2.994 2.994c.28.279.73.279 1.01 0l7.578-7.578a.713.713 0 10-1.01-1.01l-7.076 7.07z"/></svg>