<svg viewBox="0 0 24 24" id="sort" xmlns="http://www.w3.org/2000/svg"><defs><path d="M6.92 3.212v19.795a.938.938 0 01-.94.94.94.94 0 01-.939-.94V3.212l-3.437 3.44a.94.94 0 11-1.329-1.33L5.316.275a.94.94 0 011.33 0l5.04 5.045a.941.941 0 01-1.329 1.33l-3.436-3.44zm10.115 17.556L16.997.947A.944.944 0 0117.943 0c.522 0 .945.424.945.947l.039 19.82 3.458-3.461a.945.945 0 111.338 1.339l-5.073 5.078a.945.945 0 01-1.338 0l-5.073-5.078a.947.947 0 011.337-1.34l3.459 3.463z" id="eoa"/></defs><use fill="#000" xmlns:xlink="http://www.w3.org/1999/xlink" xlink:href="#eoa" fill-rule="evenodd"/></svg>