<svg viewBox="0 0 50 50" id="Account-OrderHistory" xmlns="http://www.w3.org/2000/svg"><g fill="#000" fill-rule="nonzero"><path d="M2.7 47.4V15.2h44.6v32.1H2.7v.1zm9.6-44.8h11.4v10.1H4l8.3-10.1zm33.8 10H26.4v-10h11.4l8.3 10zm3.6.3L39.5.5c-.3-.3-.6-.5-1-.5H11.6c-.4 0-.8.2-1 .5L.4 12.9c-.2.2-.3.5-.3.8v34.9c0 .7.6 1.3 1.3 1.3h47.2c.7 0 1.3-.6 1.3-1.3V13.7c.1-.3 0-.6-.2-.8z"/><path d="M31.4 25.5l-9 8.6-3.7-3.6c-.5-.5-1.4-.5-1.9 0s-.5 1.3 0 1.8l4.7 4.5c.3.2.6.4.9.4.3 0 .7-.1.9-.4l9.9-9.5c.5-.5.5-1.3 0-1.8s-1.3-.5-1.8 0z"/></g></svg>