<svg viewBox="0 0 40 50" id="Account-AddressBook" xmlns="http://www.w3.org/2000/svg"><g fill="#000" fill-rule="nonzero"><path d="M7.7 15.6h29v31.9h-29c-2.9 0-5.2-2.4-5.2-5.3V13.5c1.4 1.3 3.2 2.1 5.2 2.1zM39.2 1.3C39.2.6 38.6 0 38 0H7.7C3.4 0 0 3.5 0 7.8v34.4C0 46.5 3.5 50 7.7 50H38c.7 0 1.2-.6 1.2-1.3V14.3c0-.7-.6-1.3-1.2-1.3H7.7c-2.9 0-5.2-2.4-5.2-5.3s2.3-5.3 5.2-5.3H38c.6.1 1.2-.4 1.2-1.1z"/><path d="M8.1 6.7c-.7 0-1.2.6-1.2 1.3 0 .7.6 1.3 1.2 1.3h28.4c.7 0 1.2-.6 1.2-1.3 0-.7-.6-1.3-1.2-1.3H8.1zM19.6 26.7l2.3 6.1h-4.6l2.3-6.1zm-6.7 14.1c.6.2 1.4-.1 1.6-.7l1.8-4.8h6.5l1.8 4.8c.2.5.7.8 1.2.8.2 0 .3 0 .4-.1.6-.2 1-1 .7-1.6l-5.5-14.5c-.3-.8-1.1-1.3-1.9-1.3-.8 0-1.6.5-1.9 1.3l-5.5 14.5c-.1.6.2 1.3.8 1.6z"/></g></svg>