<svg viewBox="0 0 720 720" id="Division_6.1" xmlns="http://www.w3.org/2000/svg"><path stroke="#000" stroke-width="9" fill="#fff" d="M361.48 713.02l351.54-353.29L361.48 7.01 7 359.73z" stroke-dashoffset="72" stroke-dasharray="46,24"/><path d="M255.49 191.53c-5.227 2.787-5.633 8.238-5.901 11.844-.083 1.107-.207 2.782-.472 3.268-.3.509-1.798 1.634-2.789 2.381-3.296 2.477-7.813 5.871-7.813 11.771 0 10.375 12.386 14.992 18.04 15.506 2.72.248 6.626-.483 10.402-1.189 1.538-.287 3.546-.658 4.367-.715 3.244.691 22.619 7.152 35.565 11.47 8.4 2.802 15.83 5.28 19.824 6.538l.006.133c-8.842 3.413-39.558 13.773-44.17 15.189-2.545.783-13.199.389-17.209.238l-3.842-.111c-4.455 0-13.174 3.341-17.74 10.513-1.243 1.954-1.639 3.702-1.639 5.14 0 .873.146 1.63.34 2.248 1.289 4.146 5.557 5.955 8.984 7.405.854.362 2.026.864 2.712 1.25.002.093.013.136.013.241 0 .641-.041 1.484-.074 2.166-.045.947-.098 2.01-.098 3.132 0 3.688.307 9.413 3.431 12.692 2.63 2.761 7.106 3.17 12.177 3.17 9.472 0 17.875-11.537 24.25-19.692 1.503-1.923 2.93-4.089 3.764-4.56 2.852-1.603 15.943-7.658 25.585-11.621l16.13-5.498c5.698 3.332 12.206 4.359 22.702 4.359 7.852 0 14.504-1.37 19.905-4.068 5.348 2.757 16.949 8.723 18.857 9.541 2.729 1.17 7.5 2.102 11.158 2.25 2.988 1.816 14.904 12.918 22.23 21.5 4.523 5.311 10.547 5.193 12.525 5.154l.303-.006c6.484 0 13.232-3.717 15.699-8.646a9.065 9.065 0 00.975-4.109c0-1.85-.531-3.445-.912-4.586l-.113-.383c.689-.643 1.727-1.519 2.566-2.226 3.932-3.31 8.389-7.06 9.752-11.417a9.5 9.5 0 00.443-2.832 8.5 8.5 0 00-1.682-5.089c-4.881-6.64-19.678-7.974-41.969-7.974-6.238 0-16.244-4.241-27.826-9.151l-6.627-2.781c.184-.881.334-1.752.455-2.609l11.646-3.688c11.473-3.666 32.838-10.492 36.05-10.711 1.225.002 2.549.361 4.225.817 2.379.647 5.34 1.454 9.313 1.454 8.422 0 20.389-9.204 20.389-17.795 0-6.511-5.156-8.632-8.238-9.898-1.592-.656-3.096-1.273-3.98-2.232-1.039-1.127-1.258-2.758-1.492-5.31-.238-2.607-.51-5.563-2.516-8.07-1.691-2.114-4.592-3.256-8.867-3.492-3.676-.204-12.266.371-15.34 3.445l-1.525 1.784c-2.549 3.125-8.223 10.08-16.988 16.537 1.586-5.959 1.863-12.903 1.863-19.678 0-23.449-7.264-38.911-7.574-39.557a4.501 4.501 0 00-.894-1.257c-3.188-3.152-31.719-30.809-51.48-30.809-33.75 0-60.31 29.441-61.42 30.695-.39.439-.691.951-.884 1.507-.209.598-5.116 14.907-5.116 36.18 0 9.49.881 17.12 2.7 23.17-8.724-5.996-13.252-12.379-16.278-16.651l-2.061-2.818c-6.201-7.853-16.426-7.392-23.811-3.455m65.12 79.77c-16.04 6.592-26 10.797-29.08 13.62a50.212 50.212 0 00-5.413 5.865c-4.02 5.148-11.755 15.652-16.837 15.652-1.729 0-4.01-.238-5.09-1.369-.973-1.021-1.197-3-1.197-5.06 0-.934.047-1.883.089-2.764.044-.888.085-1.736.085-2.549 0-1.742-.19-3.314-.961-4.727-1.442-2.643-4.396-3.895-7.251-5.105-1.014-.428-2.688-1.148-3.559-1.73 2.68-4.148 8.284-6.289 10.1-6.289l3.508.105c8.531.316 16.493.508 20.19-.629 3.549-1.092 31.646-9.459 43.13-13.735.6 1.913 1.713 3.446 2.836 5.172l-10.548 3.538m62.17-9.101c-4.426 4.685-11.174 7.06-20.868 7.06-11.145 0-17.757-1.27-21.54-5.222-3-3.141-3.421-5.576-3.928-10.898 4.959 4.85 12.849 5.918 25.26 5.918 10.371 0 20.314-.848 25.509-5.157-.633 4.296-1.061 4.731-4.434 8.301m17.643 2.838c13 5.511 24.09 8.203 31.34 9.866 1.563.358 28.05-3.01 32.758 4.196.731 1.119-3.453 4.896-5.684 6.771-3.168 2.668-3.408 2.277-4.627 3.871-.426.556-2.469 6.283-2.469 6.906 0 1.497 1.756 2.782 1.688 3.563-.068.783-3.402 3.212-6.811 3.212-5.928 0-8.373-5.52-13.52-10.714-9.76-9.84-18.93-16.682-20.537-16.682-2.65 0-8.09-.975-9.746-1.686-1.137-.488-7.816-3.132-14.211-6.419 1.822-1.959 3.885-2.988 5-5.17l6.815 2.286m43.984-61.686s.418-.502.688-.829c2.094-.975 9.02-1.55 11.143-.723.246.608.387 2.02.48 3.02.277 3.01.656 7.14 3.84 10.591 2.234 2.422 4.973 3.547 7.172 4.45.935.386 2.334.964 2.652 1.319l-.002.007.001.25c0 2.801-7.148 8.795-11.389 8.795-2.77 0-4.801-.552-6.949-1.136-2.045-.557-4.16-1.133-6.67-1.133-3.301 0-14.607 3.435-38.711 11.137l-8.475 2.684a80.533 80.533 0 00-.059-1.408c1.268-2.183 2.254-4.416 3.105-6.588l.021.066c24.18-7.249 38.455-24.751 43.14-30.503m-136.13-44.43c1.888-3.03 9.421-12.11 21.32-17.13 11.02-4.656 24.64-9.885 32.76-9.885 16.538 0 36.12 19.428 44.556 27.631 1.303 3.086 6.395 16.338 6.395 34.992 0 25.02-4.563 26.954-13.982 26.954-2.664 0-4.35.795-4.996 2.574 0 0-4.176 10.266-5.918 13.5-2.332 4.334-15.166 7.883-26.379 7.883-11.06 0-24.08-2.633-26.06-6.383-1.99-3.75-1.572-10-1.572-10-.305-1.965-3.447-3.977-5.418-4.25 0 0-12.816-2.569-13.332-2.75-6.699-2.633-11.712-8.406-11.712-30.77-.002-16.875 3.363-29.15 4.343-32.363m-36.05 41.637l1.78 2.441c4.81 6.793 14.15 19.973 37.558 28.446 1.018.425 2.046.776 3.074 1.063a113.89 113.89 0 008.364 2.381l.218-.895.043.006 1.426.193c.355 2.029.96 4.544 2.203 7.154l-.048 1.648c-4.24-1.375-10.555-3.48-17.12-5.67-31.381-10.467-36.34-11.955-38.18-11.955-1.414 0-3.296.338-6.251.891-2.572.48-6.457 1.206-7.934 1.072-2.858-.26-9.851-2.875-9.851-6.543 0-1.406 2.243-3.092 4.221-4.578 2.01-1.51 4.086-3.07 5.282-5.267 1.194-2.189 1.381-4.694 1.546-6.907.185-2.484.365-4.146 1.16-4.571.84-.445 8.319-4.216 12.509 1.091"/><path d="M371.93 209.63c4.426 2.344 9.633 3.906 9.633 3.906s5.728-2.084 9.633-5.207c3.906-3.125 4.947-6.77 4.947-6.77s-5.988-7.289-15.361-7.289c-9.371 0-14.84 7.03-14.84 7.03s1.562 5.988 5.988 8.33M327.85 209.86c2.466 1.643 8.991 3.866 8.991 3.866s7.989-2.49 10.218-4.57c2.229-2.082 4.793-7.728 4.793-7.728s-3.9-6.918-14.617-6.918c-10.715 0-14.811 6.881-14.811 6.881s2.959 6.828 5.426 8.469M348.11 238.03s6.182.183 7.64-.407c1.456-.59 2.775-2 4.641-2s3.548 1.592 5.095 2.136c1.545.545 5.77 0 5.77 0s-.455-6.134-1.727-8.406c-1.272-2.271-9.685-8.178-9.685-8.178s-8.963 6.04-9.962 8.768c-.999 2.727-1.772 8.09-1.772 8.09"/><path stroke="#000" stroke-width="9" fill="none" stroke-linejoin="round" d="M360.01 57.2L54.35 360.33l305.66 303.62 303.13-303.62z"/><path d="M376.88 572.28c3.554-4.228 5.331-9.109 5.331-14.648 0-5.563-1.82-10.131-5.457-13.704-3.638-3.573-8.301-5.36-13.985-5.36-2.652 0-5.01.404-7.07 1.209-2.063.808-3.873 2.086-5.435 3.839.355-4.628 1-8.124 1.945-10.495 1.741-4.295 4.659-6.444 8.759-6.444 2.741 0 4.792.941 6.148 2.818.796 1.16 1.193 2.224 1.193 3.19h12.56c-.441-4.696-2.425-8.457-5.95-11.283-3.525-2.824-8.256-4.238-14.193-4.238-4.116 0-7.647.868-10.6 2.604-2.953 1.734-5.34 4.03-7.162 6.897-2.117 3.357-3.542 7.559-4.275 12.607-.411 2.84-.617 6.522-.617 11.05 0 7.723 1.482 14.03 4.449 18.91 3.817 6.26 9.748 9.389 17.796 9.389 7.488-.002 13.01-2.114 16.563-6.342m-26.25-13.91c0-3.914 1.235-6.75 3.704-8.507 1.654-1.189 3.559-1.784 5.716-1.784 2.658 0 4.903.914 6.733 2.736 1.83 1.823 2.747 4.45 2.747 7.88 0 3.081-.804 5.586-2.411 7.517-1.608 1.932-3.814 2.896-6.617 2.896-2.864 0-5.225-1-7.085-2.998-1.858-2-2.787-4.579-2.787-7.74"/></svg>