<svg viewBox="0 0 24 24" id="circle-error" xmlns="http://www.w3.org/2000/svg"><defs><path d="M12 0c6.617 0 12 5.383 12 12s-5.383 12-12 12S0 18.617 0 12 5.383 0 12 0zm.054 22.441c5.75 0 10.427-4.677 10.427-10.426 0-5.749-4.677-10.426-10.427-10.426-5.749 0-10.426 4.677-10.426 10.426 0 5.749 4.677 10.426 10.426 10.426z" id="bya"/></defs><g fill="#000" fill-rule="evenodd"><use xmlns:xlink="http://www.w3.org/1999/xlink" xlink:href="#bya"/><path d="M12.01 5c-.848 0-1.51.417-1.51 1.156 0 2.255.29 5.495.29 7.75 0 .587.558.833 1.22.833.497 0 1.2-.246 1.2-.834 0-2.254.29-5.494.29-7.75C13.5 5.418 12.817 5 12.01 5zM12.01 16c-.863 0-1.51.692-1.51 1.522 0 .81.647 1.521 1.51 1.521.804 0 1.49-.711 1.49-1.521 0-.83-.686-1.522-1.49-1.522z" fill-rule="nonzero"/></g></svg>