<svg viewBox="0 0 46 51" id="Account-password" xmlns="http://www.w3.org/2000/svg"><g fill="#696158" fill-rule="nonzero"><path d="M23 1c-6.354 0-11.524 4.58-11.524 10.208v7.726h-.438c-5.476 0-9.933 3.949-9.933 8.802V41.2c0 4.851 4.457 8.8 9.933 8.8h23.924c5.476 0 9.933-3.949 9.933-8.802V27.734c0-4.853-4.457-8.802-9.933-8.802h-.438v-7.724C34.524 5.58 29.354 1 23 1zm-9.219 10.208c0-4.504 4.135-8.166 9.219-8.166s9.219 3.662 9.219 8.166v7.726H13.781v-7.726zm21.18 9.768c4.207 0 7.63 3.032 7.63 6.76V41.2c0 3.726-3.423 6.76-7.63 6.76H11.039c-4.206 0-7.628-3.032-7.628-6.76V27.736c0-3.726 3.422-6.76 7.628-6.76h23.924z" stroke="#696158"/><path d="M21.848 36.527v4.965c0 .564.516 1.021 1.152 1.021.636 0 1.152-.457 1.152-1.02v-4.966c2.628-.474 4.61-2.536 4.61-5 0-2.815-2.586-5.104-5.762-5.104-3.176 0-5.762 2.289-5.762 5.104 0 2.464 1.982 4.524 4.61 5zM23 28.462c1.906 0 3.457 1.375 3.457 3.063 0 1.688-1.551 3.062-3.457 3.062s-3.457-1.374-3.457-3.062c0-1.688 1.551-3.063 3.457-3.063z"/></g></svg>