<svg viewBox="0 0 43 36" id="Account-Payments" xmlns="http://www.w3.org/2000/svg"><g fill="#000" fill-rule="evenodd"><path d="M9 26v5.146l.005.139c.069.87.773 1.63 1.743 1.708l.164.007h27.075l.164-.006c.965-.069 1.671-.746 1.827-1.68l.022-.168V15.854c-.096-1.02-.827-1.775-1.85-1.848L38 14v-3a5 5 0 015 5v15a5 5 0 01-5 5H11a5 5 0 01-5-5v-5h3z"/><path d="M32 0a5 5 0 015 5v15a5 5 0 01-5 5H5a5 5 0 01-5-5V5a5 5 0 015-5h27zm2 9H3v11.146l.005.139c.072.919.853 1.715 1.907 1.715h27.075l.164-.006c1.022-.073 1.753-.828 1.849-1.848V9zm-1.912-6H5.013l-.157.006c-.983.071-1.773.807-1.85 1.723L3 4.875V6h31V4.875l-.005-.146C33.923 3.765 33.142 3 32.088 3z"/></g></svg>