<svg viewBox="0 0 718.358 718.358" id="Class_8" xmlns="http://www.w3.org/2000/svg"><path fill="#FFF" d="M0 359.857l359.859 359.861 359.854-359.861L359.859 0 0 359.857z"/><path d="M359.85 47.78L47.78 359.85l310.728 310.727 312.07-312.07L359.85 47.78zM62.098 361.809l-1.986-1.984L359.824 60.112l298.422 298.421-3.277 3.275H62.098v.001z"/><path d="M266.229 297.5c-3.709 4-10.628 7.807-20.445 7.807-12.17 0-17.71-3.475-19.839-7.807H164.55v23.622h157.742V297.5h-56.063z"/><path fill="none" stroke="#000" stroke-width="9" d="M341.656 24.647L359.94 6.364l14.1 14.099m-32.384 4.184M292.031 74.272l31.346-31.346m-31.346 31.346M242.585 123.717L273.82 92.48m-31.235 31.237M193.214 173.088l31.466-31.465m-31.466 31.465M143.842 222.459l31.351-31.347m-31.351 31.347M94.532 271.772l31.005-31.006m-31.005 31.006M45.105 321.197l31.176-31.176m-31.176 31.176M36.823 390.4L6.364 359.939l20.661-20.66m9.798 51.121M86.137 439.711L55.13 408.705m31.007 31.006M135.447 489.023l-31.174-31.176m31.174 31.176M185.164 538.738l-31.522-31.521m31.522 31.521M234.479 588.053l-31.409-31.406m31.409 31.406M283.847 637.422l-31.351-31.35m31.351 31.35M333.049 686.623l-31.463-31.463m31.463 31.463M386.748 683.666c-15.354 15.354-28.331 28.328-28.331 28.328l-7.175-7.178m35.506-21.15M436.232 634.182l-31.41 31.41m31.41-31.41M485.6 584.813l-31.52 31.52m31.52-31.52M534.857 535.555l-31.465 31.465m31.465-31.465M584.115 486.295l-31.008 31.01m31.008-31.01M633.885 436.525l-31.41 31.41m31.41-31.41M683.254 387.156l-31.463 31.463m31.463-31.463M688.855 335.28l23.139 23.138-10.889 10.887m-12.25-34.025M639.313 285.738l31.125 31.123m-31.125-31.123M589.598 236.023l31.525 31.526m-31.525-31.526M540.285 186.711l31.52 31.519m-31.52-31.519M490.797 137.223a473517.2 473517.2 0 0131.695 31.695m-31.695-31.695M441.777 88.203l31.348 31.348m-31.348-31.348M392.455 38.88l30.893 30.893M392.455 38.88"/><path fill="none" stroke="#000" stroke-width="3.5" d="M510.73 323.318c-25.365 0-13.184 9.18-54.236 9.18-5.488 0-15.701-1.021-24.723-1.021-13.68 0-17.645-1.962-17.645-5.446 0-3.337 3.457-5.383 7.295-5.383m89.309 2.67"/><path fill="none" stroke="#000" stroke-width="3.5" d="M443.082 320.648h-31.518c-7.48 0-9.861-3.64-9.861-6.187s2.336-4.502 9.168-4.502m32.211 10.689M437.295 309.959h-38.84c-5.412 0-8.697-2.592-8.697-6.572 0-3.981 4.297-6.208 8.596-6.208h38.998m-.057 12.78"/><path fill="none" stroke="#000" stroke-width="3.5" d="M408.859 297.18c-5.73 0-5.572-3.821-5.572-5.253 0-1.434.479-5.571 7.164-5.571h43.773c4.458 0 12.734-1.91 12.734-1.91m-58.099 12.734"/><path fill="none" stroke="#000" stroke-width="3.5" d="M474.123 306.094c-8.119 0-21.967-3.821-21.012-19.739m21.012 19.739"/><path fill="none" stroke="#000" stroke-width="3.5" d="M510.734 287.469c-6.336 0-14.033.44-21.031-1.93-5.662-1.914-10.279-6.255-17.969-9.531-10.027 6.527-24.354 5.573-31.518-2.228-7.959 3.82-16.873 3.183-16.873 3.183 0 3.981-1.273 9.392 18.465 9.392m68.926 1.114M507.893 219.074c-3.652 4.397-5.242 6.569-6.236 8.806-1.504 3.386.104 10.085-.531 11.099-1.244 1.988-5.66 2.217-7.4 5.199-1.74 2.984 0 6.214-.746 7.955-.744 1.74-5.467 6.213-7.953 7.207m22.866-40.266M486.377 222.482c0 6.613 3.115 8.819 1.52 12.088-1.596 3.27-4.486 3.193-5.93 5.702-1.445 2.509.531 8.589-.152 10.794-.689 2.229-3.117 5.17-6.006 7.147m10.568-35.731M437.385 226.865c0 4.346-2.523 8.271-1.822 11.074.701 2.803 5.594 3.961 6.729 6.519 1.402 3.154-.701 7.289.07 9.533.771 2.242 3.293 4.625 5.816 7.5m-10.793-34.626M418.531 224.482c2.523 3.014 5.117 5.608 6.027 8.41.912 2.805-.209 9.954.631 11.565.842 1.613 6.309 3.855 7.08 5.117s.35 6.87 1.051 8.34c.699 1.473 4.766 5.047 6.799 7.01m-21.588-40.442M281.742 249.094c-4.196 4.779-5.254 5.435-6.425 8.654-1.17 3.221.087 10.672-.694 11.648-.779.975-5.374 3.198-6.447 4.367-1.072 1.172-.717 6.898-1.594 8.459-.878 1.56-6.655 6.934-7.376 7.162m22.536-40.29M263.532 254.143c0 6.311 1.779 10.293 1.386 12.064-.554 2.496-4.438 3.535-5.755 5.408-1.316 1.871.069 10.122-.484 11.44-.555 1.316-4.092 6.309-5.963 7.486m10.816-36.398M224.636 258.65c-.762 3.813-3.397 8.25-2.565 10.955.832 2.703 6.309 5.753 7.073 7.902.762 2.15-.832 6.866-.209 9.569.625 2.705 3.676 5.476 6.034 7.695m-10.333-36.121M206.193 250.4c3.606 4.784 4.887 5.86 6.24 8.319 1.525 2.773-.416 8.597.833 11.164 1.248 2.564 5.685 2.912 7.14 6.1 1.457 3.189.208 5.686 1.734 8.529 1.525 2.842 6.377 5.061 6.377 5.061M206.193 250.4"/><path d="M244.811 252.48c0 4.783-5.337 11.717-5.337 18.512 0 4.921 2.009 9.221 4.782 9.221 2.774 0 5.201-3.329 5.201-9.291 0-5.963-4.646-14.906-4.646-18.442zM348.148 185.895c-1.875-10.25-12.75-11.625-22.5-10 0 0-68 12.125-72.125 12.875s-7.5.625-12.25-4.625c0 0 4.625 26.375 4.875 29.125s.674 4.475.674 4.475c0 4.992-6.101 14.351-6.101 20.801 0 6.447 2.911 10.607 5.614 10.607 2.705 0 6.102-5.27 6.102-12.204s-4.367-11.51-4.367-14.558c0-3.051 4.777-5.1 6.239-5.547 1.463-.449 78.713-13.949 78.713-13.949 9.626-1.75 17.001-6.75 15.126-17zm-15.75 13.75c-3.992.799-6.75 1.25-6.75 1.25l-77 6.875-2.25-14.5s77.75-13 82.625-13.875 14.125-1.125 15.75 7.375-7.375 11.875-12.375 12.875zM462.271 244.395c0 4.365 4.086 9.271 4.086 15.473 0 4.491-1.811 8.068-4.34 8.068-2.533 0-4.648-2.577-4.648-8.018 0-5.443 4.902-12.296 4.902-15.523zM465.939 212.104c.25-2.75 4-28.75 4-28.75-4.75 5.25-7.457 4.445-11.582 3.695s-78-14.111-78-14.111c-9.75-1.625-20.875.75-22.752 11-1.875 10.25 7.459 15.75 17.084 17.5 0 0 81.418 13.237 82.881 13.684 1.463.449 5.213 2.425 5.213 5.476s-4.137 5.221-4.137 12.153c0 6.934 1.688 9.602 4.391 9.602s5.414-3.05 5.414-9.498c0-6.449-3.523-8.643-3.523-13.634 0-.002.761-4.367 1.011-7.117zm-79.707-12.93s-9.469-.94-13.459-1.737c-5-1-13.625-4.25-12-12.75s13.459-9.293 18.334-8.418 86.375 15.28 86.375 15.28l-2.25 14.5-77-6.875z"/><path fill="#FFF" d="M345.43 562.048c0-3.026.842-5.321 2.526-6.889 1.683-1.566 3.957-2.351 6.818-2.351 2.861 0 5.134.784 6.817 2.351 1.684 1.567 2.527 3.862 2.527 6.889 0 2.916-.828 5.179-2.482 6.786-1.654 1.608-3.942 2.412-6.862 2.412-2.921 0-5.208-.804-6.862-2.412-1.654-1.607-2.482-3.87-2.482-6.786zm-13.187.721c0 4.95 1.859 9.163 5.578 12.639 3.719 3.477 9.193 5.214 16.422 5.214 7.228 0 12.859-1.736 16.891-5.209 4.03-3.473 6.047-7.682 6.047-12.627 0-3.297-.801-6.282-2.402-8.958-1.602-2.675-3.989-4.824-7.159-6.446 3.125-1.623 5.155-3.536 6.093-5.74s1.407-4.267 1.407-6.188c0-4.273-1.777-7.918-5.33-10.934s-8.567-4.523-15.046-4.523-11.495 1.507-15.047 4.52c-3.553 3.012-5.327 6.652-5.327 10.921 0 1.919.469 3.979 1.411 6.181.941 2.201 2.979 4.248 6.116 6.139-3.158 1.352-5.557 3.368-7.195 6.047-1.64 2.674-2.459 5.664-2.459 8.964zm14.312-26.004c0-2.315.725-4.126 2.176-5.434 1.451-1.308 3.462-1.96 6.035-1.96 2.602 0 4.613.652 6.033 1.96 1.422 1.308 2.131 3.118 2.131 5.434 0 2.128-.709 3.866-2.131 5.212-1.42 1.348-3.432 2.02-6.033 2.02-2.573 0-4.584-.672-6.035-2.02-1.451-1.346-2.176-3.084-2.176-5.212z"/><path fill="#FFF" d="M345.43 562.048c0-3.026.842-5.321 2.526-6.889 1.683-1.566 3.957-2.351 6.818-2.351 2.861 0 5.134.784 6.817 2.351 1.684 1.567 2.527 3.862 2.527 6.889 0 2.916-.828 5.179-2.482 6.786-1.654 1.608-3.942 2.412-6.862 2.412-2.921 0-5.208-.804-6.862-2.412-1.654-1.607-2.482-3.87-2.482-6.786zm-13.187.721c0 4.95 1.859 9.163 5.578 12.639 3.719 3.477 9.193 5.214 16.422 5.214 7.228 0 12.859-1.736 16.891-5.209 4.03-3.473 6.047-7.682 6.047-12.627 0-3.297-.801-6.282-2.402-8.958-1.602-2.675-3.989-4.824-7.159-6.446 3.125-1.623 5.155-3.536 6.093-5.74s1.407-4.267 1.407-6.188c0-4.273-1.777-7.918-5.33-10.934s-8.567-4.523-15.046-4.523-11.495 1.507-15.047 4.52c-3.553 3.012-5.327 6.652-5.327 10.921 0 1.919.469 3.979 1.411 6.181.941 2.201 2.979 4.248 6.116 6.139-3.158 1.352-5.557 3.368-7.195 6.047-1.64 2.674-2.459 5.664-2.459 8.964zm14.312-26.004c0-2.315.725-4.126 2.176-5.434 1.451-1.308 3.462-1.96 6.035-1.96 2.602 0 4.613.652 6.033 1.96 1.422 1.308 2.131 3.118 2.131 5.434 0 2.128-.709 3.866-2.131 5.212-1.42 1.348-3.432 2.02-6.033 2.02-2.573 0-4.584-.672-6.035-2.02-1.451-1.346-2.176-3.084-2.176-5.212z"/></svg>