<svg viewBox="0 0 12 12" id="pickup" xmlns="http://www.w3.org/2000/svg"><path d="M9.75 0a.75.75 0 01.75.75v.985L12 5.25a1.5 1.5 0 01-1.425 1.498l-.075.002v4.875a.375.375 0 01-.375.375h-8.25a.375.375 0 01-.375-.375V6.75A1.5 1.5 0 01.002 5.325L0 5.25l1.5-3.516V.75A.75.75 0 012.25 0h7.5zM9 5.25a1.5 1.5 0 01-2.998.075L6 5.25a1.5 1.5 0 01-2.998.075L3 5.25c0 .573-.322 1.071-.794 1.324a.37.37 0 01.044.176v4.5h7.5v-4.5a.37.37 0 01.044-.176 1.499 1.499 0 01-.792-1.25L9 5.25zM8.25 7.5v2.625h-4.5V7.5h4.5zm-.75.75h-3v1.125h3V8.25zm2.405-6h-7.81L.761 5.377l.004.022a.75.75 0 00.678.599L1.5 6a.75.75 0 00.748-.694l.002-.056a.75.75 0 011.5-.037v.075a.751.751 0 001.498.018l.002-.056a.75.75 0 011.5-.037v.075a.751.751 0 001.498.018l.002-.056a.75.75 0 011.5-.037v.075a.751.751 0 001.482.126l.007-.037L9.904 2.25zM9.75.75h-7.5v.75h7.5V.75z" fill="#453d3a" fill-rule="evenodd"/></svg>