<svg viewBox="0 0 16 16" id="edit-personalization" xmlns="http://www.w3.org/2000/svg"><g fill="none"><path d="M15.382 3.633c.276-.248.313-.64.087-.873l-1.374-1.425c-.226-.233-.626-.219-.902.029l-.488.443 2.182 2.27.495-.444z" fill="#000"/><path fill="#3285B2" d="M1.84 6.09L.385 5.343v6.21l1.455-.756z"/><path d="M2.45 13.225c-.348-.087-.603-.37-.603-.727v-1.214l-1.454.749v.742c0 1.032.88 1.876 1.956 1.876h4.298v-1.396H2.64c-.058 0-.116-.022-.175-.037l-.021.007h.007z" fill="#695493"/><path d="M1.84 4.396c0-.421.356-.763.8-.763h4.007V2.236H2.35c-1.084 0-1.956.844-1.956 1.877v.742l1.454.749V4.396H1.84z" fill="#48B782"/><path fill="#E58361" d="M11.89 10.796l1.455.757V5.982l-1.454 1.323z"/><path d="M11.89 12.49c0 .423-.355.765-.8.765h-4v1.396h4.3c1.083 0 1.955-.844 1.955-1.876v-.742l-1.454-.75v1.208z" fill="#D15454"/><path d="M11.39 2.236h-4.3v1.397h3.034l1.512-1.368c-.08-.014-.16-.029-.247-.029z" fill="#F2D766"/><path fill="#FFF" d="M14.05 4.84l-6.872 6.233-3.956 1.462 1.767-3.731 6.873-6.233.487-.444 2.182 2.27z"/><path d="M6.065 9.91l-.669-.06-.094-.734-1.011 2.146a.456.456 0 01.32.313l2.262-.83-.764-.181-.044-.655z" fill="#FFF"/><path d="M11.862 2.564L4.989 8.796l-1.767 3.731 3.956-1.462 6.873-6.232.487-.444-2.182-2.269-.494.444zm-7.251 9.01a.444.444 0 00-.32-.312L5.3 9.116l.095.735.662.058.007.007.044.655.764.182-2.262.822z" fill="#000"/></g></svg>