<svg viewBox="0 0 32 32" id="contact-support-questionmark" xmlns="http://www.w3.org/2000/svg"><path d="M26.5 4.7c-.2-.1-.4-.3-.5-.4-.3-.2-.5-.4-.8-.6-.5-.3-1-.4-1.2-.7-.4-.3-.8-.5-1.2-.8-.2-.2-.6-.3-.8-.2-.3-.3-.6-.5-1-.7-.6-.3-1.3-.5-2-.7-.3-.1-.8-.2-1.1-.3L15.8.2h-1.4c-.1 0-.2.1-.4.1-.7-.1-1.4.1-2.1.3-.9.2-1.7.7-2.6 1-.4.3-.8.5-1.2.8-.4.2-.8.5-1.2.7-.2.2-.5.4-.7.7-.3.2-.5.4-.8.6-.4.3-.7.7-1.1 1.1-.2.3-.4.6-.7.9-.3.2-.4.6-.6.9-.4.8-.8 1.5-1.2 2.1 0 .1-.1.2-.1.3.2.3 0 .5-.1.7s-.2.5-.2.7c-.1.1-.3.1-.3.2 0 .3-.1.6-.3.9v.2c.1.2 0 .4-.1.6-.1.1-.1.2-.1.3-.1.4-.1.8-.2 1.2 0 .4-.1.9-.1 1.3v.6c.1.9.3 1.7.3 2.6 0 .4.1.7.1 1.1.1.5.1.9.2 1.4 0 .2.2.4.3.5h.2c.1.2.2.5.3.6 0 .2-.1.3-.1.3.1.2.1.5.3.5.3 0 .5.3.6.5.2.3.5.7.5 1 .1.6.3.9.8 1.2l.3.3c.4.7.9 1.3 1.6 1.7.7.5 1.1 1 1.7 1.2l.3.3c.1.1.1.1.2.1.3 0 .5.1.7.3.9.5 1.9.8 2.8 1.2.1.1.3.1.4 0 .1-.1.2-.1.3 0 .5.2 1.1.2 1.6.3.5.1 1 0 1.5.1h.8c.5 0 1 .1 1.4.1.1 0 .1 0 .2-.1.4 0 .7-.2 1.2-.2.3 0 .7 0 1.1-.1l1.2-.3c.2-.1.3-.3.6-.1 0 0 .1 0 .1-.1.2-.3.5-.4.9-.4.5-.1.8-.5 1.3-.6.2-.1.4-.3.6-.4.1-.1.2-.2.3-.2.3-.1.5-.2.8-.5s.6-.5.9-.7l.3-.3c.2-.2.3-.4.5-.5l.3-.3c.2-.3.5-.6.7-.9.3-.4.8-.7 1-1.2.1-.2.2-.4.3-.5.1-.2.3-.5.4-.7.1-.3.3-.5.5-.8.1-.2.2-.3.2-.5.2-.5.4-.9.5-1.4.1-.4.3-.9.3-1.3 0-.3.2-.7 0-1.1v-.2c.3-.5.1-1.1.2-1.6 0-.7-.1-1.4-.2-2 0-.2-.1-.4 0-.6v-.2c-.2-.7-.5-1.3-.7-2-.1-.5-.5-1-.4-1.6 0 0 0-.1-.1-.2-.4-.7-.5-1.1-.7-1.5-.2-.3-.4-.7-.5-1-.1-.2-.2-.3-.3-.5-.2-.3-.5-.6-.7-.9-.1-.1-.2-.2-.2-.3M.9 14.3c-.1 0-.1 0 0 0 0-.5.1-1 .2-1.5 0 .5-.1 1-.2 1.5zm6-10.2c.1 0 .1 0 0 0 .1 0 .1-.1.2-.1 0 0 0-.1.1-.1 0 0 0-.1.1-.1h.1s.1-.1 0-.1c-.2.1-.2.2-.2.2 0-.1.1-.1.2-.1 0 0 .1-.1.2-.1l.2-.2c.2-.3.4-.5.7-.7.1 0 .1-.1.2-.1.2-.1.4-.3.7-.3.2 0 .4-.1.2-.1.2 0 .3-.1.4 0 0 0 .1.1 0 .2-.1 0-.3.2-.4.2-.4.1-.6.3-.9.4-.1.1-.3.1-.4.2-.3.2-.5.4-.8.5l-.1.1-.1.1h-.1v.1c-.2.1-.3.1-.3.2h-.1c0-.1.1-.1.1-.2zm-.4.3c.2-.1.2-.2.3-.2v.1h-.1s0 .1-.2.1c.1 0 .1 0 0 0zm.2 0zm0 .1c-.1 0-.1 0 0 0-.1 0-.1 0 0 0zm-.4.2s.1 0 0 0c.1-.1.1 0 0 0 .1 0 0 0 0 0zm4.4 25.5v-.1h.2v.1h-.2zm1.5.4c.1 0 0-.1 0 0 .1-.2.2-.4.4-.2-.1 0-.2.1-.4.2zm5.4-.3c.2.1.3.2.5.3-.3.2-.4-.1-.5-.3zm11.6-12.7c-.1.2 0 .3-.1.5 0 .5-.3.9-.4 1.4 0 .1-.1.1-.1.2-.1.7-.6 2-1 2.6-.5.8-1.1 1.6-1.7 2.3-.1.1-.2.1-.3.2-.1.1-.2.2-.4.3-.4.4-1.3 1.1-1.7 1.5l-.9.6c-.2.1-.5.3-.7.4-.7.3-1.6.9-2.3 1.2-.3.1-.6.1-1 .2-.6.1-1.3.2-1.9.3-.6 0-1.2.1-1.8-.1h-.3c-.3 0-.5 0-.8-.1-.1 0-.1-.1-.2 0-.5.1-1-.2-1.5-.2H12c-.3-.3-.6-.2-1-.3-.3-.1-.5-.1-.7.1-.2-.1-.4-.2-.5-.4.2-.2 0-.3-.1-.3-.4-.2-.9-.4-1.3-.6-.1 0-.1-.1-.2-.1-.2-.4-.6-.5-1-.6-.2-.4-.5-.8-.8-1.1-.3-.3-.8-.5-1-1-.5-.1-.6-.6-.9-.8-.4-.5-.7-1.3-1.1-1.9-.1-.1-.2-.2-.3-.2.1-.3 0-.5-.1-.8-.1-.9-.7-1.6-.5-2.4V18v-1c-.1-.6-.2-1.3-.1-1.9 0-.5 0-.9.2-1.4v-.1c-.1-.4.2-.8.3-1.3.1-.6.4-1.3.8-1.9.2-.3.4-.7.6-1 0-.1.1-.1.1-.2.3-.3.6-.8.8-1.1.3-.5.7-.8 1-1.2.1-.2.3-.3.5-.4.1-.2.4-.3.5-.5.5-.4 1.1-.8 1.6-1.2.2-.2.4-.3.5-.3.8-.4 1.7-.7 2.5-1.1l.1-.1c.6 0 1.1-.4 1.7-.5.5-.1.9-.1 1.4 0h1.2c.5 0 1.1 0 1.6.1.1 0 .1 0 .2.1.3.2.5.2.8.3 1 .2 2.2.5 3.2 1 .2.1.4.3.7.4.1.1.2.2.3.2.3 0 .5.2.8.4.3.2.5.4.9.4-.1.2 0 .3 0 .3.9.8 1.7 1.7 2.4 2.7.2.3.5.7.7 1 .1.2.2.4.2.6 0 .2.1.4.2.6.1.3.3.6.3.9.1.3.1.5.2.8.2.4.3 1.1.4 1.6.1.7.1 1.4.2 2.1-.1.5.2.9-.1 1.3z"/><path d="M17.4 24.2c-.1-.1-.1-.2-.1-.2-.1-.1-.1-.2-.2-.2v-.1c-.2-.1-.3-.3-.5-.4-.1-.1-.2-.1-.3-.2.1 0 .1.2.2.2h-.2v-.1h.1c-.1 0-.1-.1-.2-.1-.2-.1-.2 0-.4 0-.1 0-.2.1-.2.1l-.1.1s-.1 0-.1.1c.1.1.3 0 .4.3v-.3s.1 0 0 .2c.1 0 .1 0 0 0v.2c0 .1-.2.2-.4.2l-.3-.2c-.1 0-.1.2-.2.3h.1v.3h-.2l.1.1c0 .1-.1.1-.1.2 0 0-.1.1-.2.1v.2l-.1-.1c0 .1.1.1.2.2-.1.1 0 .2.1.3.1 0 .1.1.1.2.1 0 .3-.1.3-.2v.1l-.1.1c-.1 0 0 0-.2.1.1.2.2.2.2.2.1 0 .1.1.2.1s.2.1.3 0h.2c.3 0 .5 0 .6-.1.1-.1.2-.1.3-.1.2-.2.5-.3.6-.6.1-.1.1-.2.1-.3.1-.3.1-.5 0-.7zM14.5 24.9c.1 0 .1 0 0 0z"/><path d="M14.7 24.7c-.1-.1-.1-.2 0-.3-.1-.2-.1-.3.2-.3V24c.1 0 .2-.1.3-.1v-.1c0-.1 0-.1-.1-.2v-.1h.3c-.2 0-.2-.1-.2-.1s.1-.1 0-.2c0 0-.1.1-.2.1-.1.1-.3.2-.3.3v.1h.1c.1 0 .1-.1.1-.1.1.1-.2.1 0 .2-.1.1-.2.1-.2.2v-.1s-.1 0-.1-.1c0 .1-.1.1-.1.2-.1.1-.1.3 0 .6V24.9l.2-.2zM15.6 23.8c.1.1.1.1 0 0h.2-.2zM16.4 23.3z"/><g><path d="M18.4 6.9c.2.1.3.2.4.3.3.2.6.5 1 .7.3.2.5.5.7.8.2.2.3.4.4.6.1.1.1.1 0 .2 0 0-.1.2 0 .2s.1 0 .2-.1c0 .1-.1.2-.1.3.1 0 .2 0 .3.1l-.1.1.2.2c0 .1-.1.2-.1.3 0 .3.2.6.3.9.1.5.1 1 .1 1.5h-.2c0 .5-.1 1-.4 1.4-.2.3-.4.6-.7.9l-.6.6-.3.3c-.1.1-.1.1 0 .3-.1 0-.2-.1-.2-.1-.1.1-.2.3-.3.4-.2.1-.3.3-.4.5 0 .1-.1.1-.2.1 0 0-.1 0-.1.1-.1.1-.2.1-.3 0 .1.1-.1.3-.1.4-.1.2-.2.4-.4.6-.1.3-.2.6-.3.8 0 .1-.1.3-.1.4v.4c0 .1.1.5 0 .6-.1.1-.3.1-.1.2.1 0-.2.3-.2.3-.1.1-.3.2-.4.3-.5.1-1.3.2-1.5-.3 0-.1-.1-.2-.1-.3 0-.3-.1-.5 0-.8 0-.4.1-.1.1 0 .1-.1 0-.3.2-.3-.1-.1-.2-.2-.3-.2 0-.1.1-.2.2-.3h-.1c.1-.1 0-.1 0-.2s.1-.2.2-.3c.1-.1.1-.1.2-.1s.1-.1.2-.1c.1-.1.2-.1.2-.2v-.1h-.4v-.1c0-.1 0-.3.1-.4 0-.1.3-.3.3-.3v.2c.1 0 .2-.1.3-.1-.1 0-.1-.1-.2-.1 0 0 .1-.1.1-.2h-.3c-.1 0-.2 0-.2-.2 0-.1.2-.3.3-.3l.4-.4c.3-.3.7-.6 1.1-.9.3-.2.7-.5 1-.8.3-.3.5-.8.7-1.1.1-.2.2-.3.2-.5v-.6c0-.3.1-.5 0-.7-.1-.8-.1-1.5-.5-2-.1-.1-.3-.1-.3-.3-.2 0-.2-.2-.4-.3-.2-.1-.4-.1-.6-.3l-.1-.1H17c-.2 0-.8-.2-.9 0 0-.1-.1-.2-.1-.3h-.1c.1 0-.5.3-.5.3-.3.1-.7.2-1 .3-.2.1-.6.5-.7.5-.1.2-.3.3-.5.5 0 0 .1 0 .1.1 0 .2 0 .3-.1.5-.1.1-.2.2-.2.3-.1.3-.2.6-.2 1 0 .2-.1.1-.2.3 0 0-.2.3-.2.2l.2.2-.2.1v.2c0 .1-.1.1-.2.2s-.1.2-.2.3c0 0-.1 0-.2.1-.1 0-.1.1-.2.1l-.1.1h-.1c-.2 0-.5-.1-.7-.2-.1-.1-.2-.2-.2-.3-.1-.2-.2-.4-.3-.5l.1-.1c.1 0 .2-.1.1-.2s0-.4.1-.5v-.2c-.3-.1 0-.6 0-.8.1-.2.2-.5.2-.7 0-.1.1-.2.1-.3.1-.1.1-.2.2-.3v-.1l.1-.1v.1c0-.1.3-.7.4-.6.1.1 0 .2.2.2v-.3c.1 0 .2 0 .2-.1v-.2c0-.2.2-.3.4-.4.1 0 .1-.1.2-.1l.2-.2c.2-.2.3-.3.6-.4.2-.1.4-.1.3.1.1.1.2-.1.2-.2s.1-.2.2-.3c0-.1.1-.2.3-.2.1 0 .3-.1.4 0-.1.1-.1.3-.2.4v.1c0 .1.1.1.1.1.1 0 .3 0 .4-.2v-.2h-.1l-.1-.1c0-.1 0-.2.1-.3.2-.2.6-.1.8-.1 0 0 .1 0 .2.1l-.1-.1.4-.1c.2 0 .4 0 .5.1.3.1.3.2.1.4.1 0 .3-.1.4-.1 0 0-.1-.1-.1-.2h.3v-.1c.4 0 .7.1 1 .3zM16 18.2c.1-.1.1-.3.2-.4h-.3c-.1 0-.2-.1-.2-.1 0 .1.1.2.1.2.2 0 .2.2.2.3zm-.7-11.5c.2.3.2.3.4.2-.1-.2-.2-.2-.4-.2zM13 8.2c.2 0 .2 0 .2-.2-.2-.1-.1.1-.2.2zm1.2-.5c.2-.1.2-.2.2-.3h-.1c-.1.1-.1.2-.1.3zm1-.3c-.1 0-.2.1-.2.1 0 .1.1.1.1.2 0-.1.1-.2.1-.3z"/></g></svg>