<svg viewBox="0 0 722.07 722.068" id="Division_4.3_white" xmlns="http://www.w3.org/2000/svg"><path fill="#009FDB" d="M0 361.033l361.034 361.035L722.07 361.036 361.034 0 0 361.033z"/><path fill="#FFF" d="M361.035 682.049L682.05 361.036 361.035 40.021 40.019 361.033l321.016 321.016zm0-627.887c6.832 6.834 300.039 300.039 306.872 306.874-6.833 6.833-300.04 300.036-306.872 306.87-6.834-6.834-300.039-300.037-306.873-306.873 6.834-6.832 300.039-300.037 306.873-306.871z"/><path fill="#FFF" d="M383.347 543.609h-10.629l-28.62 38.167v10.084h27v12.124h12.249V591.86h8.251v-10.125h-8.251v-38.126zm-12.249 38.126h-15.167l15.167-20.434v20.434zM360.887 84.228c-14.703 28.083 3.212 43.936-16.538 85.305-10.479-8.373-4.404-39.661-25.215-40.185 3.203 9.608.806 13.34.271 16.81-2.07 13.456-6.874 25.481 2.467 43.363-14.35-6.972-14.588-19.764-26.721-27.787 2.402 13.612-3.382 41.213 12.733 67.659-14.36-1.412-19.123-6.934-34.666-21.828 16.221 84.03 28.289 86.391 87.772 91.158-4.482-.524-34.453-5.312-45.308-39.85-.616-8.552-.955 7.516 27.87 8.049-18.251-28.905-13.279-23.434-11.144-40.247 7.556 11.507.937 12.513 22.288 21.054-6.77-21.508 10.447-36.226 6.712-60.779 4.718 10.783 21.499 9.085 20.699 60.862 13.895-15.501 15.553-4.771 22.225-22.12.387 9.658 4.626 21.685-14.26 41.481 4.804 1.335 12.848 2.369 25.926-6.439-12.733 14.432-1.225 14.771-33.432 38.388 40.568.533 67.213-25.004 66.258-81.124-1.067 4.805-2.264 14.396-24.148 17.333 13.709-13.622 20.853-40.744 9.91-63.163-3.853 3.583-9.841 20.244-24.253 25.048 7.31-11.994 5.665-27.515 5.665-27.515s1.866-20.964-10.517-37.154c-3.47 25.355-3.18 38.105-19.192 42.109 2.576-14.965 3.051-21.933-4.956-39.015-8.36-17.841-18.045-35.399-20.446-51.413zm-66.99 228.985v14.698h142.801l-.021-7.339-.021-7.318-71.359-.021-71.4-.02z"/></svg>