<svg viewBox="0 0 24 24" id="calendar" xmlns="http://www.w3.org/2000/svg"><path d="M18.16.561c0-.748 1.226-.748 1.226 0v2.807h2.504c1.128 0 2.06.89 2.11 1.965v16.702C24 23.111 23.067 24 21.939 24H2.06C.932 24 0 23.111 0 22.035V5.333c0-1.076.933-1.965 2.061-1.965h2.503V.561c0-.748 1.227-.748 1.227 0v2.807H18.16V.561zm4.564 9.919H1.129v11.555c0 .468.392.842.883.842H21.89a.849.849 0 00.834-.842V10.48zM5.362 18.246a.994.994 0 110 1.987.994.994 0 010-1.987zm13.104 0a.994.994 0 110 1.987.994.994 0 010-1.987zm-6.576 0a.994.994 0 110 1.987.994.994 0 010-1.987zm-6.528-4.632a.994.994 0 110 1.988.994.994 0 010-1.988zm13.104 0a.994.994 0 110 1.988.994.994 0 010-1.988zm-6.576 0a.994.994 0 110 1.988.994.994 0 010-1.988zM4.515 4.538H2.012c-.49 0-.883.374-.883.842v3.93h21.595V5.38c0-.468-.393-.842-.884-.842h-2.503v2.058c0 .749-1.227.749-1.227 0V4.538H5.742v2.058c0 .749-1.227.749-1.227 0V4.538z" fill="#000" fill-rule="nonzero"/></svg>