<svg viewBox="0 0 24 21" id="triangle-warning" xmlns="http://www.w3.org/2000/svg"><g fill="#000" fill-rule="nonzero"><path d="M23.69 17.713L13.847 1.101A2.16 2.16 0 0012 .041a2.16 2.16 0 00-1.847 1.06L.31 17.713a2.23 2.23 0 00-.03 2.212 2.153 2.153 0 001.877 1.115h19.688c.777 0 1.496-.427 1.878-1.115a2.23 2.23 0 00-.031-2.212zm-1.329 1.43a.593.593 0 01-.517.307H2.156a.593.593 0 01-.517-.307.614.614 0 01.008-.609l9.845-16.612A.595.595 0 0112 1.63c.207 0 .401.112.508.292l9.845 16.612c.11.187.113.42.008.61z"/><path d="M12.007 6.469c-.594 0-1.058.319-1.058.884 0 1.725.203 4.204.203 5.93 0 .449.391.637.855.637.348 0 .841-.188.841-.637 0-1.726.203-4.205.203-5.93 0-.565-.478-.884-1.044-.884zM12.022 14.92c-.638 0-1.116.508-1.116 1.117 0 .594.478 1.116 1.116 1.116.594 0 1.102-.522 1.102-1.116 0-.609-.508-1.116-1.102-1.116z"/></g></svg>