<svg viewBox="0 0 716.684 715.904" id="Division_4.1" xmlns="http://www.w3.org/2000/svg"><path fill="#FFF" d="M1.175 358.104c8.055 8.055 350.061 350.061 358.115 358.111 8.055-8.053 350.068-350.059 358.123-358.111C709.359 350.05 367.345 8.052 359.291 0 351.236 8.052 9.23 350.05 1.175 358.104z"/><g fill="#EF4136"><path d="M226.496 132.79v450.635l54.699 54.698V78.092l-54.699 54.698zM359.291 0l-27.585 27.583v661.049c16.116 16.117 26.274 26.273 27.585 27.584l27.114-27.113V27.112L359.291 0zM435.519 76.224V639.99l53.921-53.919v-455.93l-53.921-53.917zM540.402 181.101V535.11l56.14-56.139V237.238l-56.14-56.137zM647.857 288.551v139.107l69.557-69.554-69.557-69.553zM1.175 358.104l72.395 72.395V285.712L1.175 358.104zM124.969 234.314v247.583l52.402 52.402V181.913l-52.402 52.401z"/></g><g><path d="M428.785 185.188l-8.065 7.75-9.31 5.125 5.685-13.188.065-19.875-2.326-13.984-8.174-16.703-1.814 19.5-4.679 13.964-4.007 6.161-5.689 2.062 1.939-12.375-1.815-11.875-4.19-9.222-6.12-13.465-10.439-22.875-6.561-21.438-4.46 12.532-1.957 10.209-.081 23.191-.294 17.986-2.375 11.114-5.481 11.718-5.416-10.867-2.392-12.836-3.481-9.134-4.877-4.913-.765-.242-10.819-3.424 2.666 10.75-2.416 13.584-1.584 12.416.084 11.977 3.666 11.023-6.499-4.916-7.167-6.834-4.833-9.25-8.333-8.25 2.333 20 .25 11.75 2.303 15.662 3.447 9.672 6.167 11.582-14.917-2-7.083-5.832-6.25-8.25-1.526-1.58-5.558-5.754 2.584 14.416 2.974 10.685 9.692 34.815 8.464 12.137 14.87 12.281 17.485 4.999 3.417.978 14.611 1.298 15.751.489-15.751-2.922-11.347-5.592-6.681-6.682-4.819-4.818-7.998-19.922 7.468 5.52 5.349 1.435 2.046.549 14.689 1.563-6.089-8.971-5.606-4.967-1.623-9.576-.168-17.438 3.09 8.832 4.709 6.332 6.492 4.384 7.956 2.92-1.891-12.284-.157-9.027 4.365-12.043 3.709-10.864.136-17.168 8.719 8.764 7.508 11.713 3.933 18.104-.087 23.654 2.968-2.325 1.566-1.228 7.814-4.937 6.935-6.625 3.751-9.938.064 17.313L401.971 255l-4.311 5.813-6.814 6.375 9.702.224 8.987-2.599 8.811-3.625-9.375 17.187-9.251 8.188-12.31 9.187-1.005.44-4.559 1.998h13.439l12.25-2.563 13.936-7.187 10.5-7.438 3.548-5.714 6.576-10.598 6.251-21.375 2-28.5-4.017 11.365-7.955 6.168-2.855.758-9.984 2.646 8.125-12.125 1.859-3.798 2.452-5.014L442.16 198l-2.25-12.187-4.25-13.938-.141.23-2.859 4.645zM331.706 311.897h-34.781v15.171h141.298v-15.171h-51.818zM377.315 580.544V544.36h-14.661l-22.73 36.226v9.063h25.72v13.718h11.671v-13.718h7.311v-9.105h-7.311zm-11.671 0h-16.339l16.339-25.021v25.021z"/><path d="M647.857 327.511l-51.315-51.317-56.14-56.138-50.962-50.961-53.921-53.922-49.114-49.113-27.114-27.113-27.585 27.585-50.51 50.511-54.699 54.699-49.125 49.126-52.402 52.402-51.4 51.4-29.999 29.998 29.999 29.999 51.398 51.398 52.402 52.402 49.125 49.126 54.699 54.7 50.51 50.51 27.588 27.59 27.111-27.111 49.114-49.113 53.921-53.922 50.962-50.963 56.14-56.139 51.315-51.314 27.16-27.16-27.158-27.16zm-51.315 92.242l-56.14 56.139-50.962 50.963-53.921 53.922-49.114 49.113L359.293 657l-27.588-27.589-50.51-50.51-54.699-54.699-49.125-49.127-52.402-52.402-51.399-51.399-16.605-16.606 16.605-16.605 51.398-51.398 52.402-52.402 49.125-49.125 54.699-54.699 50.51-50.511 27.585-27.585 27.114 27.113 49.114 49.113 53.921 53.92 50.962 50.962 56.14 56.139 51.315 51.314 13.769 13.769-13.769 13.768-51.313 51.312zM386.405 32.226l16.47 16.472 6.114-6.114-32.32-32.322-3.558 3.557-2.556 2.556zM456.716 97.423l3.556-3.556-32.321-32.322-6.116 6.114 13.684 13.68 18.641 18.642zM489.44 135.261l16.001 16.001 6.114-6.113-32.322-32.321-3.558 3.557-2.556 2.556zM559.282 199.988l3.556-3.556-32.322-32.323-6.114 6.114 16 16 16.322 16.322zM596.542 242.362l11.464 11.465 6.113-6.114-32.322-32.32-3.555 3.555-2.558 2.558zM661.846 302.551l3.555-3.555-32.32-32.322-6.114 6.113 20.89 20.892 11.43 11.43zM684.361 317.957l-3.554 3.555-2.559 2.558 32.322 32.321 2.558-2.558 3.556-3.557zM6.114 353.223l-1.467 1.465L0 359.336l32.32 32.323 4.649-4.648 1.466-1.466zM55.93 405.972l-4.648 4.647 32.321 32.321 6.114-6.113-16.147-16.146-16.175-16.175zM124.969 472.079l-16.291-16.292-6.113 6.114 32.321 32.322 4.648-4.648 1.466-1.467zM158.494 508.536l-4.647 4.649 32.322 32.321 6.114-6.112-14.912-14.913-17.41-17.411zM226.496 573.606l-15.252-15.252-6.115 6.114 32.322 32.321 4.647-4.647 1.467-1.468zM261.058 611.103l-4.646 4.645 32.32 32.322 6.115-6.113-13.652-13.651-18.67-18.67zM331.706 678.815l-17.899-17.896-6.114 6.112 32.323 32.323 4.646-4.648 1.467-1.467zM50.28 317.053l-4.02-4.019-2.094-2.095-32.321 32.323 2.094 2.093 4.02 4.021zM73.57 293.764l27.993-27.993-6.114-6.115-32.321 32.323 2.094 2.093 4.02 4.02zM148.825 210.468l-2.094-2.093-32.321 32.32 6.113 6.116 4.446-4.445 27.877-27.878zM177.371 189.963l26.757-26.758-6.114-6.113-32.321 32.32 2.093 2.094 4.02 4.021zM251.39 107.902l-2.093-2.093-32.323 32.322 6.115 6.113 3.407-3.407 28.914-28.913zM281.195 86.139l25.496-25.496-6.113-6.116-32.321 32.323 2.093 2.092 4.021 4.021zM353.953 5.338l-2.093-2.091-32.321 32.319 6.114 6.114 6.053-6.053 26.269-26.268zM360.3 709.835l32.32-32.32 6.113 6.111-32.321 32.321zM411.586 658.552l32.321-32.32 6.112 6.111-32.32 32.321zM462.875 607.247l32.323-32.323 6.113 6.112-32.323 32.323zM514.16 555.907l32.323-32.322 6.116 6.116-32.323 32.322zM565.446 504.683l32.32-32.32 6.114 6.113-32.32 32.321zM616.725 453.378l32.319-32.318 6.114 6.114-32.319 32.319zM668.018 402.132l32.32-32.32 6.113 6.112-32.32 32.32z"/></g></svg>