<svg viewBox="0 0 24 24" id="circle-account" xmlns="http://www.w3.org/2000/svg"><path d="M12 0c6.617 0 12 5.383 12 12s-5.383 12-12 12S0 18.617 0 12 5.383 0 12 0zm.035 12.934c-3.82 0-6.943 3.042-7.069 6.828l-.001.065a10.46 10.46 0 007.09 2.762 10.46 10.46 0 007.056-2.732l.001.143c0-3.896-3.175-7.066-7.077-7.066zm.02-11.345c-5.79 0-10.5 4.71-10.5 10.5 0 2.598.949 4.98 2.518 6.815a8.018 8.018 0 015.818-6.622A5.003 5.003 0 017 7.75C7 4.993 9.244 2.75 12 2.75c2.757 0 5 2.243 5 5a5.006 5.006 0 01-2.89 4.533c3.085.842 5.434 3.49 5.83 6.731a10.457 10.457 0 002.615-6.925c0-5.79-4.71-10.5-10.5-10.5zm-.056 2.161A4.004 4.004 0 008 7.75c0 2.206 1.794 4 3.999 4a4.004 4.004 0 004.001-4c0-2.206-1.794-4-4.001-4z"/></svg>