<svg viewBox="0 0 1002 1002.006" id="Division_5.2" xmlns="http://www.w3.org/2000/svg"><path d="M1 501c515.335 149.184 665.33 175.174 1000 .001L501 1 1 501" fill="#ef2e33"/><path d="M502.708 928.769C641.748 789.732 794.948 633.43 927.377 501H77.915" fill="#f5f014"/><path d="M1 501l499.999 500.006L1001 501.001" fill="#f5f014"/><path d="M502.36 73.585L88.866 487.083C157.961 417.988 488.973 86.974 502.36 73.585M498.223 60.039L58.745 499.517l443.9-443.9zM88.742 511.829L502.37 925.456c-13.28-13.282-344.783-344.783-413.628-413.627" fill="#fff"/><path d="M502.643 73.302L928.86 499.518l5.028 5.296 12.655-5.298L502.644 55.617l-443.9 443.9 10.541 4.436 7.147-4.435" fill="#100f0d"/><path d="M946.543 499.516l-17.683.002C779.82 648.52 637.245 791.166 502.645 925.73 356.52 779.62 206.545 629.621 76.432 499.518l-17.687-.001 443.899 443.899" fill="#100f0d"/><path d="M448.355 805.958c-3.613.001-6.365-.989-8.248-2.968-1.888-1.982-3.165-4.798-3.833-8.448l-16.719.001c.587 7.984 3.48 14.147 8.684 18.493 5.204 4.345 11.853 6.517 19.952 6.518 10.056 0 17.606-3.09 22.652-9.265 5.047-6.175 7.568-13.191 7.57-21.048-.001-9.027-2.62-15.906-7.853-20.637-5.234-4.727-11.369-7.094-18.4-7.095-3.48 0-6.426.45-8.847 1.349-1.448.55-3.457 1.66-6.037 3.339l3.064-18.69 34.947.001v-14.134h-46.958l-6.056 47.032 15.004.678c1.335-2.538 3.32-4.278 5.952-5.218 1.495-.506 3.263-.764 5.308-.764 4.32 0 7.503 1.499 9.546 4.49 2.045 2.992 3.066 6.658 3.066 11 0 4.42-1.091 8.084-3.273 10.997-2.18 2.917-5.353 4.371-9.52 4.37M508.538 799.841h-17.807v17.537h17.808v-17.537M541.32 782.611c-8.884 6.364-14.523 12.38-16.917 18.05-2.48 5.043-3.798 10.618-3.956 16.716h58.315v-14.679l-37.125.001a18.861 18.861 0 013.893-4.654c1.542-1.336 4.41-3.495 8.6-6.482l6.7-4.77c5.635-4.004 9.69-7.635 12.156-10.888 3.761-4.899 5.64-10.51 5.64-16.82 0-8.233-2.663-14.846-7.99-19.845-5.328-4.997-12.496-7.5-21.505-7.499-11.398 0-19.33 4.25-23.796 12.747-2.35 4.467-3.662 10.322-3.935 17.568l16.31-.001c.196-4.785.82-8.274 1.877-10.472 1.835-3.802 5.29-5.705 10.37-5.704 3.707 0 6.562 1.196 8.555 3.591 1.989 2.394 2.986 5.393 2.987 9.004-.001 4.434-1.74 8.515-5.213 12.244-2.266 2.392-7.257 6.358-14.965 11.893" fill="#100f0d"/><path d="M496.061 136.77c-20.441 39.043 4.466 61.082-22.992 118.594-14.568-11.64-6.122-55.137-35.055-55.866 4.453 13.357 1.12 18.546.378 23.37-2.878 18.706-9.557 35.424 3.43 60.284-19.95-9.692-20.28-27.476-37.148-38.63 3.34 18.924-4.702 57.296 17.702 94.061-19.964-1.963-26.585-9.638-48.193-30.346 22.551 116.822 39.328 120.104 122.023 126.732-6.23-.73-47.897-7.384-62.988-55.401-.856-11.89-1.327 10.448 38.747 11.19-25.374-40.184-18.462-32.578-15.493-55.954 10.504 15.998 1.301 17.397 30.985 29.271-9.411-29.901 14.525-50.361 9.33-84.498 6.56 14.992 29.89 12.631 28.777 84.614 19.318-21.551 21.622-6.635 30.898-30.753.538 13.427 6.43 30.146-19.823 57.67 6.678 1.855 17.861 3.291 36.043-8.953-17.703 20.063-1.704 20.536-46.478 53.367 56.399.742 93.441-34.761 92.113-112.78-1.484 6.679-3.147 20.015-33.572 24.096 19.058-18.938 28.99-56.643 13.777-87.811-5.356 4.981-13.68 28.143-33.717 34.822 10.163-16.674 7.877-38.252 7.877-38.252s2.593-29.144-14.621-51.652c-4.824 35.25-4.42 52.975-26.683 58.54 3.582-20.803 4.242-30.491-6.89-54.238-11.626-24.803-25.087-49.213-28.427-71.476zm-93.13 318.343v20.434h198.527l-.058-20.376-198.47-.058z"/></svg>