<svg viewBox="0 0 103.725 103.125" id="Division_1.5" xmlns="http://www.w3.org/2000/svg"><path d="M0 51.525l51.825 51.6 51.9-51.6L51.825 0 0 51.525" fill="#e77817" fill-rule="evenodd"/><path d="M51.225 70.725v2.1l-2.4-.9-.3 1.8 2.1.6-1.5 1.8 1.5.9 1.2-1.8 1.5 1.8 1.2-.9-1.5-1.8 2.4-.6-.6-1.8-2.1.9v-2.1h-1.5M51.225 81.825l-.6 1.2-1.5.3v1.2h1.8v6h1.8v-8.7h-1.5" fill="#1f1a17" fill-rule="evenodd"/><path d="M6.9 51.525l44.925 45 45-45-45-44.925z" fill="none" stroke="#1f1a17" stroke-width=".899" stroke-linecap="round" stroke-linejoin="round" stroke-miterlimit="10"/><path d="M55.425 25.8h12v3.6h-9l-.6 4.2.9-.3.9-.6h3.3l1.5.3 1.2.6c3.233 2.499 3.024 5.206 2.4 8.925l-1.8 2.4-1.2.6-1.2.9-1.5.3h-3.3c-4.024-1.164-5.062-2.025-5.7-6.225h4.2l.3 1.425.6.9.9.3 1.2.3h.9l1.8-.9.6-1.125.3-1.8-.3-1.5-.6-1.2-1.2-.6-1.5-.3h-.6l-.9.3-.6.3-.6.9-3.6-.3 1.2-11.4" fill="#1f1a17" fill-rule="evenodd"/><path d="M46.425 46.125h4.5v-4.2h-4.5v4.2z" fill="#1f1a17"/><path d="M39.6 25.2h3.3v20.925H39V31.8h-5.1v-2.7l2.7-.3 1.5-.6 1.2-1.2.3-.9v-.9" fill="#1f1a17" fill-rule="evenodd"/></svg>