<svg viewBox="0 0 16 16" id="storefronts" xmlns="http://www.w3.org/2000/svg"><path d="M13 0a1 1 0 011 1v1.313L16 7a2 2 0 01-1.9 1.998L14 9v6.5a.5.5 0 01-.5.5h-11a.5.5 0 01-.5-.5V9A2 2 0 01.002 7.1L0 7l2-4.688V1a1 1 0 011-1h10zm-1 7a2 2 0 01-3.998.1L8 7a2 2 0 01-3.998.1L4 7a2 2 0 01-1.059 1.765A.49.49 0 013 9v6h10V9a.49.49 0 01.059-.235A2 2 0 0112.002 7.1L12 7zm-1 3v3.5H5V10h6zm-1 1H6v1.5h4V11zm3.206-8H2.794l-1.78 4.169.006.03a.998.998 0 00.904.798L2 8a1 1 0 00.997-.925L3 7a1 1 0 011.999-.05l.002.1a1 1 0 001.996.025L7 7a1 1 0 011.999-.05l.002.1a1 1 0 001.996.025L11 7a1 1 0 011.999-.05l.002.1a1 1 0 001.975.17l.009-.051L13.206 3zM13 1H3v1h10V1z" fill-rule="evenodd"/></svg>