<svg viewBox="0 0 32 32" id="spin-360" xmlns="http://www.w3.org/2000/svg"><g fill="#000" fill-rule="evenodd"><path d="M7 14.927v.047c-2.465.637-4 1.533-4 2.526 0 .824 1.059 1.582 2.83 2.18 1.698.73 4.445 1.265 7.67 1.45v-1.01l3 1.44-3 1.44v-1.143C6.961 21.524 2 19.906 2 17.96c0-1.218 1.943-2.307 5-3.033zm23 3.033c0 1.995-5.215 3.645-11.999 3.92v-.725c3.44-.156 6.385-.707 8.17-1.475C27.94 19.082 29 18.324 29 17.5c0-.992-1.534-1.888-4-2.525v-.048c3.057.726 5 1.815 5 3.033z"/><text font-family="Roboto-Medium, Roboto" font-size="10" font-weight="400" letter-spacing="-.364"><tspan x="8" y="18">360°</tspan></text></g></svg>