<svg fill="none" viewBox="0 0 26 25" id="spinner-white" xmlns="http://www.w3.org/2000/svg"><path fill-rule="evenodd" clip-rule="evenodd" d="M12.56 0c.432 0 .782.35.782.781v6.25a.781.781 0 01-1.563 0V.781c0-.431.35-.781.782-.781zM3.747 3.703a.781.781 0 011.105 0l4.42 4.42a.781.781 0 11-1.106 1.105l-4.419-4.42a.781.781 0 010-1.105zM7.813 12.516a.781.781 0 00-.782-.78H.781a.781.781 0 000 1.562h6.25c.432 0 .782-.35.782-.782zM9.274 15.86c.305.305.305.8 0 1.105l-4.419 4.42A.781.781 0 113.75 20.28l4.42-4.42a.781.781 0 011.104 0z" fill="#fff"/><path fill-rule="evenodd" clip-rule="evenodd" d="M12.56 17.187c.432 0 .782.35.782.782v6.25a.781.781 0 11-1.563 0v-6.25c0-.432.35-.782.782-.782z" fill="#fff" fill-opacity=".8"/><path fill-rule="evenodd" clip-rule="evenodd" d="M21.376 20.237l-4.419-4.419a.781.781 0 10-1.105 1.104l4.42 4.42a.781.781 0 101.104-1.105z" fill="#fff" fill-opacity=".6"/><path fill-rule="evenodd" clip-rule="evenodd" d="M25.052 12.502c0 .432-.35.782-.781.782h-6.25a.781.781 0 010-1.563h6.25c.431 0 .781.35.781.781z" fill="#fff" fill-opacity=".4"/><path fill-rule="evenodd" clip-rule="evenodd" d="M21.401 3.655c.306.305.306.8 0 1.105l-4.418 4.419a.781.781 0 11-1.106-1.105l4.42-4.42a.781.781 0 011.104 0z" fill="#fff" fill-opacity=".2"/></svg>