<svg version="1.0" viewBox="0 0 579 579" id="GHS03" xmlns="http://www.w3.org/2000/svg"><path d="M25.301 289.672L289.33 553.7l264.073-264.072c-88.053-87.952-175.931-176.079-264.03-263.985L25.302 289.672z" fill="#fff"/><path d="M147.66 148.012L6 289.672 147.669 431.34 289.329 573l141.687-141.688 141.688-141.688-141.64-141.64C353.165 70.086 289.403 6.344 289.375 6.344c-.029 0-63.8 63.752-141.717 141.668zm260.962 22.413l119.199 119.2L408.565 408.88 289.32 528.127 170.129 408.87 50.94 289.615l119.2-119.2C235.696 104.86 289.347 51.227 289.376 51.227c.028 0 53.689 53.642 119.246 119.2z" fill="red"/><path d="M286.95 84.55c-8.834 9.56-.028 48.898-18.275 85.775-9.46-10.09-13.254-29.015-23.975-38.475 5.656 14.505-10.101 13.246-4.425 63.7-8.566-2.141-8.83-5.67-27.75-28.375 3.523 22.018 1.285 35.954 5.7 60.55 0 0-4.56-.96-26.5-17.05 7.12 23.985-5.319 74.49 23.025 110.2l-.1-.075c2.181 32.315 24.96 59.01 55.3 67.075h-54.825V411.1h152.9v-23.225H308.4c27.45-7.298 48.693-29.852 54.1-58.025v-.025c7.514-12.01 41.123-50.89 15.275-113.45 0 0-7.583 13.902-21.45 17.65 0 0 17.766-29.615 3.15-53.6 0 0-4.284 17.525-18.9 18.275 0 0 7.114-37.38-12-61.175-6.937 15.767 4.154 22.3-18.925 35.325-3.157-48.578-13.24-56.766-22.7-88.3zM281.9 190.5c8.812 5.423 15.151 14.75 17.075 32.25.846 7.698 3.724 12.109 5.825 19.925a74.897 74.897 0 00-15.625-1.65c-6.548 0-12.896.84-18.95 2.425-1.342-25.495 12.002-19.897 11.675-52.95zm-32.15 18.3s3.527 22.223 12.525 37.225a74.613 74.613 0 00-17.625 9.75c-2.956-23.039 3.738-28.248 5.1-46.975zm78.2 11.35s3.304 22.252 7.8 37.175a74.537 74.537 0 00-24.225-12.9c3.753-7.68 9.527-17.795 16.425-24.275zm-112.9 24.6s6.696 6.754 24.2 15.425a75.08 75.08 0 00-15.4 19.325c-2.73-8.94-6.56-22.431-8.8-34.75zm148.225 8.2c.587 8.224.598 28.232-3.15 39.1l.025.375a74.607 74.607 0 00-15.7-26.925c4.507-3.602 12.17-9.346 18.825-12.55zm-74.75 8.725c29.465 0 53.375 23.935 53.375 53.4s-23.91 53.375-53.375 53.375-53.375-23.91-53.375-53.375 23.91-53.4 53.375-53.4z"/></svg>