<svg viewBox="0 0 24 21" id="triangle-warning-fill" xmlns="http://www.w3.org/2000/svg"><path d="M23.69 17.713c.402.677.413 1.524.032 2.212a2.153 2.153 0 01-1.878 1.115H2.156a2.153 2.153 0 01-1.878-1.115 2.23 2.23 0 01.031-2.212l9.845-16.612A2.16 2.16 0 0112 .041a2.16 2.16 0 011.846 1.06l9.845 16.612zM12.008 6.47c-.594 0-1.058.319-1.058.884 0 1.725.203 4.204.203 5.93 0 .449.391.637.855.637.348 0 .841-.188.841-.637 0-1.726.203-4.205.203-5.93 0-.565-.478-.884-1.044-.884zm.015 8.452c-.638 0-1.116.507-1.116 1.116 0 .594.478 1.116 1.116 1.116.594 0 1.102-.522 1.102-1.116 0-.609-.508-1.116-1.102-1.116z" fill-rule="evenodd"/></svg>