<svg version="1.1" id="curbside" viewBox="0 0 32 32" xmlns="http://www.w3.org/2000/svg"><style/><path d="M32 25a3 3 0 01-3 3h-2a3 3 0 01-3-3v-1H8v1a3 3 0 01-3 3H3a3 3 0 01-3-3v-9a4.002 4.002 0 012.959-3.863 2.012 2.012 0 01.138-.88l2.4-6A2 2 0 017.354 4h17.292a2 2 0 011.857 1.257l2.4 6c.116.289.159.589.139.88A4 4 0 0132 16v9zM2 23.465V25a1 1 0 00.883.993L3 26h2a1 1 0 00.993-.883L6 25v-1H4a3.983 3.983 0 01-2-.535zM28 24h-2v1a1 1 0 00.883.993L27 26h2a1 1 0 00.993-.883L30 25l.001-1.536A3.98 3.98 0 0128 24zm0-10H4a2 2 0 00-1.994 1.851L2 16v4a2 2 0 001.851 1.994L4 22h24a2 2 0 001.994-1.851L30 20v-4a2.001 2.001 0 00-1.851-1.995L28 14zM9 16a1 1 0 011 1v2a1 1 0 01-1 1H5a1 1 0 01-1-1v-2a1 1 0 011-1h4zm18 0a1 1 0 011 1v2a1 1 0 01-1 1h-4a1 1 0 01-1-1v-2a1 1 0 011-1h4zm-7.5 3a.5.5 0 010 1h-7a.5.5 0 010-1h7zM9 17H5v2h4v-2zm18 0h-4v2h4v-2zm-7.5-1a.5.5 0 010 1h-7a.5.5 0 010-1h7zm5.145-10H7.354l-2.4 6h12.172a4.002 4.002 0 017.748 0h2.172l-2.401-6zM21 10a3 3 0 00-2.758 1.817L18.17 12h5.659l-.058-.152a3.004 3.004 0 00-2.594-1.843L21 10z" id="dapath60" fill="#453d3a" fill-opacity="1"/></svg>