<svg viewBox="0 0 36 36" id="phone-icon-white" xmlns="http://www.w3.org/2000/svg"><path d="M34.33 28.367l-5.366-5.384c-.418-.418-1-.647-1.64-.647a2.52 2.52 0 00-1.78.723l-2.9 2.91-.784-.435c-1.723-.96-4.084-2.273-6.579-4.777-2.503-2.51-3.814-4.884-4.773-6.62l-.428-.762 2.905-2.914c.961-.966.993-2.503.072-3.432L7.69 1.65C7.272 1.23 6.69 1 6.053 1a2.52 2.52 0 00-1.782.725l-1.317 1.33-.123.204A8.515 8.515 0 001.639 5.37a8.823 8.823 0 00-.533 2.14c-.691 5.767 1.96 11.06 9.153 18.276C18.786 34.337 25.909 35 27.89 35c.339 0 .544-.018.602-.024a8.724 8.724 0 002.14-.541 8.21 8.21 0 002.093-1.191l.301-.237 1.232-1.211c.96-.967.99-2.504.07-3.429zm-.793 2.722l-.947.939a7.168 7.168 0 01-2.34 1.48 7.761 7.761 0 01-1.9.478c-.036.004-.18.014-.416.014-1.901 0-8.743-.64-16.975-8.9-8.104-8.132-9.4-12.852-8.848-17.439.07-.625.225-1.249.472-1.903A7.147 7.147 0 014.06 3.401l.932-.947A1.58 1.58 0 016.108 2c.38 0 .726.135.967.378L12.42 7.74c.552.555.52 1.493-.072 2.09L9.01 13.177l-.068.07.185.314c.187.314.383.671.596 1.058.983 1.777 2.329 4.21 4.912 6.802 2.587 2.596 5.002 3.94 6.769 4.92.4.224.75.417 1.061.604l.314.186 3.403-3.415c.286-.287.69-.451 1.11-.451.385 0 .73.135.973.38l5.341 5.357c.552.557.52 1.493-.069 2.087z" fill="none" fill-rule="nonzero" stroke="#fff" fill-opacity="0"/></svg>