<svg viewBox="0 0 24 24" id="contact-email" xmlns="http://www.w3.org/2000/svg"><path d="M21.07 3H2.935C1.316 3 0 4.297 0 5.892v12.216C0 19.703 1.316 21 2.935 21h18.13C22.684 21 24 19.703 24 18.108V5.898C24.005 4.301 22.689 3 21.07 3zm1.43 14.928c0 .846-.704 1.535-1.57 1.535H3.07c-.866 0-1.57-.689-1.57-1.535V5.998c0-.847.704-1.535 1.57-1.535h17.855c.866 0 1.57.688 1.57 1.535v11.93h.005zm-7.447-6.071l5.72-4.789a.585.585 0 00.048-.863.69.69 0 00-.924-.045l-7.888 6.609-1.54-1.283c-.004-.004-.009-.009-.009-.013a.952.952 0 00-.106-.086L4.09 6.156a.685.685 0 00-.924.05.581.581 0 00.053.862l5.788 4.83-5.764 5.036a.584.584 0 00-.029.863.692.692 0 00.925.031l5.85-5.109 1.588 1.324a.68.68 0 00.435.153.676.676 0 00.436-.158l1.63-1.364 5.818 5.159c.126.113.29.167.45.167a.676.676 0 00.474-.19.584.584 0 00-.024-.863l-5.744-5.09z"/></svg>