<svg viewBox="0 0 24 24" id="global-gift" xmlns="http://www.w3.org/2000/svg"><path d="M23.25 4.5a.75.75 0 01.75.75v4.5a.75.75 0 01-.75.75h-.75v12.75a.75.75 0 01-.75.75H2.25a.75.75 0 01-.75-.75V10.5H.75A.75.75 0 010 9.75v-4.5a.75.75 0 01.75-.75h22.5zM16.11 0c1.695 0 2.934.487 3.716 1.461.736.916 1.126 1.93 1.17 3.04L18.933 4.5c-.052-.776-.307-1.402-.766-1.88-.517-.538-1.206-.807-2.068-.807-1.275 0-2.157.512-2.647 1.538-.15.313-.26.696-.334 1.148h-2.236a4.298 4.298 0 00-.334-1.148c-.49-1.026-1.372-1.538-2.647-1.538-.862 0-1.551.269-2.068.807-.459.478-.714 1.104-.766 1.88H3.004l.001-.024c.049-1.1.438-2.106 1.169-3.015C4.956.487 6.194 0 7.89 0 9.802 0 11.172.669 12 2.006 12.829.669 14.199 0 16.11 0zm-4.86 10.5H3v12h8.25v-12zm9.75 0h-8.25v12H21v-12zM22.5 6h-21v3h21V6z" fill="#0E78AD" fill-rule="evenodd"/></svg>