<svg viewBox="0 0 708.251 711.986" id="Division_4.2" xmlns="http://www.w3.org/2000/svg"><path fill="#EF4136" d="M44.183 358.086H0l353.899 353.9 353.906-353.9h-43.027"/><path fill="#FFF" d="M665.225 357.989h43.026L354.346 4.089l-353.9 353.9h44.183z"/><path d="M282.307 252.592l8.059 14.209 15.805 10.953 19.967 7.307 14.61 1.297 15.747.488-15.747-2.923-11.313-6.335-11.089-12.008-8.443-18.669 7.469 5.519 7.395 1.986 14.689 1.561-6.091-8.971-5.605-4.965-1.622-9.579-.168-17.435 3.089 8.831 4.708 6.331 6.494 4.383 7.954 3.409-1.89-12.772-.156-9.027 6.558-12.468 5.438-16.967-1.306-9.571 8.049 8.265 7.614 11.53 3.426 16.3-1.836 23.128 12.247-7.017 9.097-6.336 3.198-8.55.191 17.282-3.876 11.886-6.493 8.441-6.981 4.384 10.065-.162 9.902-1.785 9.09-5.847-9.74 18.346-12.174 11.524-9.004 4.861-5.917 3.658 13.298-.076 10.715-2.697 12.745-6.231 12.036-8.353 9.47-16.323 6.331-20.131 1.136-28.246-2.109 10.065-7.954 6.17-13.15 3.408 8.258-12.433 4.079-9.319 3.409-15.26-1.785-10.716-4.384-15.421-7.954 12.663-6.064 9.076-10.306 4.686 5.981-15.223 1.817-17.737-3.44-15.056-6.835-16.531-1.907 19.622-5.927 13.672-4.325 7.262-5.845 1.299 1.957-12.66-2.118-11.529-10.39-22.726-10.228-22.728-6.006-20.616-4.383 11.2-1.958 10.209-.079 23.194-.296 17.985-2.375 11.112-5.357 12.176-5.539-11.325-2.393-12.833-3.48-9.137-6.445-4.691-9.578-4.221 4.708 13.475-2.273 10.55-1.786 11.04.163 15.746 3.896 10.714-8.116-4.868-8.118-9.416-10.521-15.706 2.242 18.628-1.948 12.012 1.786 16.072 4.219 8.997 7.631 12.919-13.799-1.948-8.833-7.072-4.784-6.744-8.623-6.801 2.273 12.174zM282.668 299.348h142.579v17.498H282.668z"/><path d="M354.479 672.968l312.594-312.587-2.295-2.294L354.479 47.793 44.183 358.086l-2.292 2.293 312.588 312.589zm0-611.405c6.376 6.375 268.598 268.593 296.527 296.524 1.229 1.228 2.014 2.015 2.295 2.294-6.655 6.654-292.166 292.161-298.822 298.814-6.655-6.653-292.164-292.16-298.818-298.816l2.294-2.293L354.479 61.563z"/><path d="M357.444 626.429h11.67V613.99h7.859v-10.386h-7.859v-39.108h-10.125l-27.265 39.15v10.344h25.72v12.439zm-14.446-22.825l14.447-20.958v20.958h-14.447zM5.274 345.543l32.021-32.022 5.703 5.703-32.022 32.022zM55.108 295.712l32.021-32.022 5.702 5.702-32.021 32.022zM105.65 245.17l32.022-32.021 5.702 5.702-32.021 32.02zM156.19 194.636l32.023-32.023 5.702 5.702-32.022 32.023zM206.733 144.087l32.021-32.02 5.703 5.702-32.02 32.021zM256.444 94.379l32.02-32.021 5.703 5.702-32.021 32.02zM355.28 5.716l5.702-5.703 32.026 32.017-5.7 5.703zM405.581 56.019l5.702-5.703 32.026 32.017-5.701 5.703zM455.876 106.307l5.703-5.703 32.022 32.022-5.703 5.703zM506.207 156.594l5.701-5.704 32.031 32.018-5.701 5.703zM556.482 206.927l5.701-5.703 32.027 32.018-5.701 5.703zM606.782 257.23l5.7-5.703 32.027 32.018-5.701 5.702zM657.082 307.533l5.701-5.703 32.026 32.018-5.7 5.702zM307.069 43.755l32.02-32.021 5.703 5.702-32.021 32.02z"/></svg>