<svg viewBox="0 0 912 912" id="Division_5.1" xmlns="http://www.w3.org/2000/svg"><path d="M456 906.84L906.84 456 456 5.16 5.16 456z" stroke-dashoffset="20" stroke="#000" stroke-dasharray="40,20" stroke-width="8" fill="#f5f014"/><path d="M456 852.61L852.61 456 456 59.39 59.39 456 456 852.61m0-777.31c7.71 7.712 372.99 372.99 380.7 380.7L456 836.7 75.3 456 456 75.3zm65.27 221.18a69.056 69.056 0 00-12.61-20.99 69.477 69.477 0 00-10.254-9.58 68.876 68.876 0 00-20.871-10.83 68.575 68.575 0 00-7.785-1.962 69.351 69.351 0 00-13.086-1.254c-5.764 0-11.359.716-16.711 2.046a68.714 68.714 0 00-8.408 2.684 68.99 68.99 0 00-15.515 8.499 69.452 69.452 0 00-5.965 4.862 69.334 69.334 0 00-14.518 18.796 68.755 68.755 0 00-7.96 32.191c0 1.831.093 3.64.232 5.434 2.169 27.838 20.828 51.034 46.226 59.835 7.089 2.457 14.694 3.809 22.619 3.809s15.53-1.352 22.62-3.81c23.95-8.298 41.916-29.387 45.709-55.105.49-3.316.751-6.709.751-10.162a68.908 68.908 0 00-4.472-24.464m-64.61 70.7c-25.535 0-46.238-20.701-46.238-46.24 0-25.535 20.702-46.237 46.238-46.237 25.538 0 46.238 20.7 46.238 46.238s-20.7 46.239-46.238 46.239zm52.66 294.85c-.767 2.355-1.893 4.237-3.382 5.649-2.172 2.065-4.99 3.442-8.452 4.128-2.173.433-5.976.762-10.536.98v13.46h19.099v52.32h18.965v-79.688h-15.03c0 .689-.221 1.739-.664 3.15m-53.56 76.41h20.83v-19.795h-20.83v19.795zm-13.57-46.18c-5.454-4.482-12.798-7.482-20.125-7.482-3.622 0-8 .6-10.685 2.182l1.091-9.687h33.31v-16.71h-47.575l-6.02 45.155 17.885.436c1.391-2.388 2.78-4.799 9.596-4.799 6.815 0 10.47 7.396 10.47 11.56 0 4.163-4.013 11.775-10.47 11.775-6.457 0-10.034-3.204-10.034-10.366h-19.204c-.698 10.154 2.314 15.97 7.73 20.065 5.414 4.098 12.334 6.148 20.761 6.148 10.464 0 18.32-2.925 23.571-8.777 5.251-5.852 7.879-12.5 7.879-19.946 0-8.555-2.728-15.07-8.181-19.554m-70.69-410.57l5.205 27.07 5.43 10.604 5.68 7.013a70.34 70.34 0 01-.232-5.434 68.752 68.752 0 017.962-32.19l-.12-6.496-3.534-14.224-1.609-10.482 9.255 9.006 5.594 3.184 4.931.215a69.433 69.433 0 015.965-4.862l-2.452-6.05 5.137-17.41 2.419-17.707 5.095 22.639 5.316 10.029a68.723 68.723 0 018.408-2.684l-.24-10.455 10.115-19.751.22-15.241 12.522 14.8 2.656 16.235 4.524 13.62a68.585 68.585 0 017.785 1.963l13.5-20.76 7.37 31.6a69.507 69.507 0 0110.254 9.58l4.2-3.52 9.419-6.628-.113 24.19-.895 6.946a68.912 68.912 0 014.473 24.464c0 3.454-.262 6.846-.752 10.162l10.69-17.054 7.795-23.11v-28.2l-7.695-31.81v5.188l-8.373 7.895-9.73 4.515 2.827-13.228 4.986-16.568-5.427-19.44-3.064 8.174-5.433 5.63-9.505 4.512 3.517-13.074v-15.566l-14.375-28.2v5.866l-2.715 12.635-5.208 9.924-9.954 4.963v-23.01l-5.43-18.048-7.467-17.822-5.396-21.91-5.69 24.63v16.68l-4.39 22.75-5.65 14.135-7.16-9.36-3.17-6.092-1.81-6.317-11.54-13.985 2.73 10.302-5.67 10.676-2.264 15.79 2.812 22.657-10.156-5.35-6.687-9.863-9.05-10.828 2.49 15.34.122 25.83 2.51 13.543-12.36-7.563-11.09-8.347 2.49 23.914v29.778m15.99 104.5v20.848h138.59v-20.848"/></svg>