<svg viewBox="0 0 24 24" id="search" xmlns="http://www.w3.org/2000/svg"><path d="M15.45 17.47l.15.15 6.011 5.973c.271.27.632.414 1.015.407.363-.007.705-.15.961-.406a1.392 1.392 0 00.008-1.97l-6.04-6.002-.104-.103.039-.046a9.58 9.58 0 001.955-5.812C19.445 4.326 15.092 0 9.723 0 4.353 0 0 4.326 0 9.66c0 5.336 4.353 9.662 9.723 9.662 2.14 0 4.12-.687 5.726-1.853m1.249-7.808c0 3.828-3.123 6.93-6.975 6.93-3.852 0-6.975-3.102-6.975-6.93S5.87 2.73 9.723 2.73c3.852 0 6.975 3.102 6.975 6.93" fill-rule="evenodd"/></svg>