<svg viewBox="0 0 813 663" id="icon-heart" xmlns="http://www.w3.org/2000/svg"><path class="djst0" d="M403.8 129.3c2.9-5.6 5.7-11.1 8.6-16.5 14.5-26.3 32.9-49.2 57-67.3 18-13.5 38.1-23 59.2-30.4 26.1-9.2 53-13.7 80.7-12.5 28.3 1.3 55 8.6 80.2 21.5 31.7 16.3 59.2 37.8 80.5 66.7 18.4 25 29.6 53 34.2 83.6 4.6 30.6 2.5 60.9-3.3 91.1-11.3 58.6-37.2 110.3-73.6 157.1-24.9 32.1-53.5 60.6-84 87.3-51.7 45.1-108.4 82.8-168.7 115.2-22.7 12.2-45.9 23.3-68.9 34.8-.9.5-2.5.7-3.4.3-57.4-26.9-112.8-57.3-165-93.4-44.4-30.8-85.7-65.1-122.9-104.3-32.8-34.6-61-72.4-81.4-115.7-15.3-32.9-25.3-67.4-30-103.4-1.9-14.2-1.3-28.3-1.4-42.5-.2-39.6 11.6-75.5 34.3-107.8 19.4-27.6 45-48.3 74.2-64.8 23.5-13.2 48.6-21.7 75.4-24.7 29.8-3.3 59 .2 87.4 9.5 22.2 7.2 43.3 16.6 62.3 30.3 24.3 17.5 43.1 40 57.9 65.9 3.7 6.5 7.1 13.2 10.7 20z"/></svg>