<svg fill="none" viewBox="0 0 25 25" id="circle-error2-fill-red" xmlns="http://www.w3.org/2000/svg"><path fill-rule="evenodd" clip-rule="evenodd" d="M12.5 0C19.393 0 25 5.608 25 12.5S19.392 25 12.5 25C5.607 25 0 19.392 0 12.5S5.607 0 12.5 0zm4.778 7.73a.755.755 0 00-1.07 0L12.5 11.43 8.791 7.723a.755.755 0 00-1.069 0 .755.755 0 000 1.07L11.43 12.5l-3.708 3.708a.755.755 0 000 1.07.755.755 0 001.07 0L12.5 13.57l3.709 3.709a.755.755 0 001.07 0 .755.755 0 000-1.07l-3.71-3.708 3.71-3.709a.76.76 0 000-1.062z" fill="#D0021B"/></svg>