<svg version="1.0" viewBox="0 0 579 579" id="GHS01" xmlns="http://www.w3.org/2000/svg"><path d="M25.301 289.672L289.33 553.7l264.073-264.072c-88.053-87.952-175.931-176.079-264.03-263.985L25.302 289.672z" fill="#fff"/><path d="M147.66 148.012L6 289.672 147.669 431.34 289.329 573l141.687-141.688 141.688-141.688-141.64-141.64C353.165 70.086 289.403 6.344 289.375 6.344c-.029 0-63.8 63.752-141.717 141.668zm260.962 22.413l119.199 119.2L408.565 408.88 289.32 528.127 170.129 408.87 50.94 289.615l119.2-119.2C235.696 104.86 289.347 51.227 289.376 51.227c.028 0 53.689 53.642 119.246 119.2z" fill="red"/><path d="M314.8 137.25c-.07.009-.118.083-.175.225-.047.142-9.07 25.861-20.05 57.175-10.98 31.314-19.987 56.978-20.025 57.025-.113.113-.91-.174-.9-.325.01-.104 23.464-73.082 23.7-73.725.028-.076-.673-.55-2.1-1.4-2.126-1.266-2.375-1.401-2.375-1.25 0 .132-19.537 76.287-19.575 76.325-.019.028-.551-.095-1.175-.275-1.493-.425-4.03-.942-5.675-1.15-1.843-.227-6.037-.236-7.7 0-7.767 1.087-14.06 4.3-19.55 9.95-3.855 3.969-6.925 9.115-8.55 14.35-.198.624-.387 1.162-.425 1.2-.038.038-3.022-2.144-6.65-4.875-3.628-2.73-6.631-4.953-6.65-4.925-.019.019.346.768.8 1.675l.825 1.65 5.7 3.825c5.509 3.695 5.672 3.83 5.625 4.075-.047.236.138.465 1.725 2.175.973 1.058 2.044 2.2 2.375 2.55l.625.625 1.675-.1 1.675-.1 3.15 2.1c1.73 1.143 3.036 1.982 2.875 1.85-.151-.132-1.405-1.095-2.775-2.125-1.36-1.02-2.416-1.866-2.35-1.875.066-.01 2.252-.133 4.85-.275l4.725-.25 6.8 3.425c3.76 1.87 6.872 3.4 6.9 3.4.028 0 1.737-2.037 3.825-4.55 2.088-2.504 3.859-4.624 3.925-4.7.104-.123-.17-.838-1.625-4.4-.954-2.334-1.719-4.256-1.7-4.275.019-.01 2.4.238 5.3.55 2.9.312 5.287.553 5.325.525.028-.038.41-1.48.825-3.2l.775-3.15 2.35-.025c1.295-.01 2.712.012 3.175.05l.85.075-8.05 8.8c-4.441 4.828-8.146 8.893-8.25 9.025-.36.425 2.841-2.781 10.325-10.35l7.375-7.475 2.75-.05 2.725-.05-.475-.7a30.708 30.708 0 00-1.15-1.5c-.36-.435-.634-.812-.625-.85.019-.038 1.047-1.109 2.275-2.375l2.225-2.275.25.525c.132.302.225.578.225.625 0 .151.124.104 3.875-1.625 1.937-.888 3.562-1.572 3.6-1.525.038.038.394 1.248.8 2.675.397 1.427.762 2.637.8 2.675.066.076 11.494-9.153 11.825-9.55.076-.104 1.496-2.689 3.15-5.75a595.735 595.735 0 013.25-5.975c.132-.227.191-.419.125-.4-.057.019-2.41 1.966-5.225 4.3l-5.125 4.225-3.675.1c-2.032.047-3.84.069-4 .05-.274-.028 1.757-2.095 34.375-35.025 19.059-19.238 34.675-35.012 34.675-35.05 0-.038-.904-.963-2-2.05-1.87-1.87-1.999-1.96-2.15-1.8-.085.085-15.94 17.345-35.225 38.35l-35.05 38.2-2.775 1.95c-1.521 1.068-2.818 1.993-2.875 2.05-.066.066.008.309.225.8.265.624.288.733.175.875-.104.132-3.75 4.154-4.45 4.9-.17.18-.178.169-1-.625-1.597-1.578-3.107-2.793-4.95-4.05l-.9-.625L299.6 225.7c13.701-23.537 17.344-29.865 17.25-29.95-.057-.066-.955-.626-1.975-1.25L313 193.35l-.325.575c-.17.321-7.212 14.232-15.65 30.9-8.703 17.216-15.374 30.3-15.45 30.3-.094 0-.082-.113.05-.5.104-.265 9.322-25.972 20.5-57.125 11.188-31.153 20.319-56.668 20.3-56.725-.038-.085-6.832-3.26-7.55-3.525-.028-.01-.052-.003-.075 0zm-34.475 43.625l-.975 2.425-.95 2.45-1.85-.725c-1.03-.406-1.897-.713-1.925-.675-.028.038-.465 2.084-.975 4.55-.5 2.466-.922 4.565-.95 4.65-.028.113.388.341 1.9 1.05 1.087.51 2.003.962 2.05 1 .038.038.502 1.706 1.05 3.7.539 1.984 1.006 3.631 1.025 3.65.019.019.79-1.08 1.725-2.45 1.776-2.598 1.772-2.59 7.375-8.675l.3-.325-1.625-5.25-1.625-5.25-.7-.05c-.387-.038-1.406-.066-2.275-.075h-1.575zm128.85 23.325c-.038 0-.097.112-.125.225-.293.973-3.287 10.237-3.325 10.275-.019.028-2.043.137-4.5.25l-4.475.2-1.275.95c-.7.539-1.281.99-1.3 1-.028.028-1.219 7.647-1.2 7.675.038.028 6.972 4 7 4 .019 0 1.279-1.34 2.8-2.975 1.53-1.635 2.797-2.984 2.825-2.975.028 0 2.532 1.706 5.575 3.775l5.525 3.75.025-1.375c.01-.756.006-3.84-.05-6.825l-.1-5.425-3.675-6.275c-2.022-3.44-3.687-6.25-3.725-6.25zm-94.025 3.825l-.175.225c-.094.123-.66.94-1.275 1.8l-1.1 1.55-.7 3.5c-.378 1.928-.7 3.596-.7 3.7.01.132.803.88 2.475 2.325 1.36 1.172 2.493 2.125 2.55 2.125.047 0 .902-.969 1.875-2.15l1.775-2.175.4-1.95c.217-1.068.443-2.188.5-2.5l.1-.575-1.075-2.9c-.586-1.587-1.097-2.912-1.125-2.95-.038-.038-.437.359-.9.85l-.825.9-.9-.9-.9-.875zm57.775 5.175c-.047 0-20.879 14.666-46.325 32.6-25.446 17.944-46.269 32.631-46.25 32.65.01.019 20.876-12.892 46.35-28.7L373 221v-3.925c0-2.145-.037-3.884-.075-3.875zm-9.15 25.5l-1.875 2.1-1.9 2.075-.9 2.425c-.5 1.332-.91 2.431-.9 2.45.038.038 16.512 2.013 16.55 1.975.019-.01-2.451-2.51-5.475-5.525l-5.5-5.5zm75.975 1.45c-.047-.01-36.743 9.478-81.55 21.1-44.807 11.622-81.469 21.156-81.45 21.175.028.028 165.234-37.393 165.3-37.45.057-.038-2.224-4.806-2.3-4.825zm-96 11.2c-.047.01-12.258 5.76-27.15 12.8-14.892 7.04-27.15 12.843-27.225 12.9-.104.076-.07.082.1.025.33-.113 54.74-21.106 54.75-21.125.01 0-.062-1.034-.175-2.3-.113-1.389-.234-2.3-.3-2.3zm118.05 5.675c-.123.01-40.384 6.841-89.5 15.175-49.106 8.325-89.418 15.15-89.55 15.15-.16.01-.572-.274-1.3-.85l-1.1-.875-.05 3.625-.05 3.625-2.825 1.925c-1.56 1.049-2.884 1.89-2.95 1.9-.066 0-1.261-.798-2.65-1.8-3.685-2.665-3.74-2.656-.225.075 1.323 1.03 2.462 1.887 2.5 1.925.094.085-4.443 3.147-4.575 3.1-.066-.019-11.216-9.519-13.975-11.9l-.625-.55-5.175 4.475c-2.844 2.466-5.212 4.5-5.25 4.5-.047 0-2.976-.765-6.5-1.7l-6.4-1.7 1.8.05c.992.028 2.49.047 3.35.075 1.483.038-2.745-.279-7.8-.6-.935-.066-6.006-.41-11.25-.75l-9.55-.625-.025-.275c-.057-.321-.018-.309-.85-.025-.595.198-.682.188-2.525.075a96.702 96.702 0 01-2.4-.15l-.525-.075-.45-.825-.45-.8-3.225-.175c-1.776-.095-3.46-.15-3.725-.15h-.475l-.425.675-.4.7-.475-.05c-.265-.01-10.154-.64-21.975-1.425-11.82-.775-21.652-1.41-21.85-1.4l-.35.025 1.1 1.175c.954 1.04 1.132 1.197 1.425 1.225.189.019 9.54.396 20.775.85 11.235.454 20.472.847 20.5.875.028.028-.424.82-1 1.775-.567.945-1.022 1.778-.975 1.825.038.038 1.41 1.013 3.025 2.175l2.925 2.125 3.225.525c1.767.302 3.284.528 3.35.5.066-.019.552-.762 1.1-1.65l1-1.625h4.1v-.35c0-.198-.071-1.322-.175-2.475-.104-1.162-.178-2.122-.15-2.15.057-.057 20.405.724 20.925.8.246.038.3.067.3.275 0 .35.497 2.546.875 3.85.321 1.096.323 1.103.125 1.15-.104.019-25.143 2.888-55.625 6.375-30.482 3.496-55.416 6.375-55.425 6.375-.028.019-.228 2.447-.2 2.475.019.01 25.048-3.37 55.625-7.5s55.665-7.5 55.75-7.5c.104 0 .233.203.375.6.123.33.402 1.005.6 1.525.198.51.344.94.325.95-.019.01-18.733 4.154-41.6 9.2-22.867 5.046-41.646 9.228-41.75 9.275-.16.066-.258.31-.475 1.425-.151.737-.228 1.372-.2 1.4.047.038 83.822-20.599 84.2-20.75.057-.019.24.244.4.575.208.416.25.622.175.65-.066.019-6.377 1.725-14.05 3.775l-13.975 3.7-.175 1.425c-.104.784-.184 1.44-.175 1.45.01.01 6.528-2.123 14.475-4.75 14.495-4.781 14.59-4.812 14.6-4.425 0 .057-10.18 5.597-22.625 12.325l-22.65 12.225.075.9c.038.491.062 1.052.1 1.25l.075.35L210.8 318.35c12.369-7.276 22.565-13.287 22.65-13.325.123-.076.301.155.925 1.175a38.058 38.058 0 002.65 3.775c.378.491.401.562.25.675-.085.057-12 9.569-26.475 21.125L184.5 352.8l1.85 1.825c1.03 1.002 1.95 1.853 2.025 1.9.113.066 3.63-3.141 15.725-14.225 8.58-7.871 15.606-14.284 15.625-14.275.019.019-.114.304-.275.625-.16.312-.275.603-.275.65 0 .066 2.595 3.001 3.2 3.625.16.16.245.138 2.05-.675l1.875-.85.95.95.95.925 1.875-1.125 1.9-1.15.725-2.425c.406-1.342.716-2.5.725-2.575 0-.085-.714-.592-1.725-1.225L230 323.7l-2.75-.05-2.725-.05 6.725-6.175c3.695-3.383 6.731-6.15 6.75-6.15.01 0 .768.727 1.675 1.625s2.08 1.984 2.6 2.4c6.302 5.046 13.465 7.492 21.175 7.275 6.057-.17 11.444-1.88 16.575-5.225 2.117-1.38 3.447-2.46 5.375-4.35l1.2-1.15 17.975 14.475c9.903 7.975 18.006 14.484 18.025 14.475.01-.019-.46-1.14-1.075-2.5l-1.1-2.475-16.7-12.25-16.7-12.225.325-.4c.18-.208.663-.815 1.05-1.325.397-.5.762-.91.8-.9.047.019 10.126 7.884 22.4 17.475 12.274 9.59 22.467 17.549 22.675 17.7l.375.275 1.075-1.075c.595-.595 1.084-1.112 1.075-1.15-.019-.028-10.534-7.662-23.375-16.95-12.832-9.288-23.415-16.94-23.5-17.025-.151-.142-.123-.215.425-1.075.369-.576.624-.903.7-.875.066.028 9.606 5.844 21.2 12.95 11.584 7.096 21.097 12.869 21.125 12.85.019-.028-.482-1.105-1.125-2.4l-1.175-2.35-19.85-10.9-19.85-10.9.675-1.325c.378-.728.845-1.653 1.025-2.05l.325-.725 12.3 3.175c6.765 1.748 12.312 3.212 12.35 3.25.076.076-.868 1.4-1 1.4-.047 0-1.72-.316-3.675-.675-1.965-.369-3.624-.65-3.7-.65-.104 0-.52.662-1.2 1.9l-1.05 1.925 2.475 1.825a982.873 982.873 0 003.825 2.825l1.35 1 10.05 1.725c5.518.945 10.056 1.694 10.075 1.675.028-.028.206-2.587.3-4.25l.025-.575-1.65-1.9-1.65-1.875-2.05-.875c-1.134-.482-2.034-.89-2.025-.9.01-.01 6.432 1.628 14.275 3.65 7.843 2.022 14.324 3.675 14.4 3.675.066 0 .1-.028.1-.075 0-.038.285-1.97.625-4.275.34-2.306.61-4.181.6-4.2-.019-.01-14.459-2.059-32.1-4.525-17.632-2.466-32.081-4.506-32.1-4.525-.019-.019.17-.675.425-1.45.265-.775.475-1.465.475-1.55 0-.104-.69-.382-2.475-1.025L289.9 295l-.5-.875c-.274-.463-.478-.872-.45-.9.019-.028 13.892.622 30.825 1.425l30.775 1.45.25.25.25.275 5.575.375 5.55.375.325-.35.325-.35 39.35 1.875c21.648 1.02 39.366 1.834 39.375 1.825.019-.019-.727-.585-1.625-1.275l-1.625-1.275-37.075-1.15c-20.39-.652-37.124-1.19-37.2-1.2-.076-.019 1.04-1.364 2.675-3.225 1.55-1.758 2.794-3.216 2.775-3.225-.01-.019-4.467-2-9.9-4.4-5.433-2.4-9.887-4.397-9.925-4.425-.038-.019-1.27 1.111-2.725 2.5l-2.65 2.525-3.75 1.25c-2.05.69-3.756 1.272-3.775 1.3-.028.019.343 1.548.825 3.4.482 1.852.828 3.412.8 3.45-.038.028-11.172-.315-24.75-.75-13.569-.425-24.712-.76-24.75-.75-.038 0-.254-.344-.5-.75-.425-.7-.524-.803-3.075-2.825l-2.65-2.075.5-.075c.274-.038 40.62-5.513 89.65-12.175l89.15-12.1.05-3.05v-3.05h-.2zm-251.5 14.7c-.003.02.01.055.025.1.038.104.205.565.375 1l.325.775 14.775 7.125c8.117 3.912 14.781 7.084 14.8 7.075.01-.019-6.58-3.545-14.65-7.825-8.06-4.28-14.892-7.899-15.175-8.05-.347-.198-.467-.26-.475-.2zm-12.975 8.65c-.028 0-.66.539-1.425 1.2-.765.661-1.363 1.222-1.325 1.25.094.076 44.043 6.932 44.1 6.875.038-.028-41.19-9.334-41.35-9.325zm41.65 9.35c-.104-.01-.163.022-.125.05.028.028.109.028.175 0 .076-.028.054-.05-.05-.05zm-36.55 2.15l.65.05c.35.038.774.066.925.075.236 0 .207.045-.275.225-.983.378-.936.378-1.125 0l-.175-.35zm145.3 1.25c.057 0 .509.42 1 .95l.875.975-1.6-.075c-.888-.038-2.628-.087-3.875-.125-1.247-.028-2.2-.097-2.125-.125.246-.085 5.63-1.59 5.725-1.6zm-109.05.2c-.022.01-.019.036 0 .05.028.028.109.028.175 0 .076-.028.029-.05-.075-.05-.052-.005-.077-.01-.1 0zm-72.025 2.85c-.038-.01-1.363.96-2.95 2.15l-2.875 2.125-.025 1.15c-.028 1.124-.033 1.162.175 1.2.35.076 15.768 1.478 15.9 1.45.094-.028-10.036-8.028-10.225-8.075zm19.175 18.425c0 .085 5.78 5.65 5.875 5.65.057 0 1.02-.38 2.125-.825l2-.8v-3.5h-.25c-.33 0-8.429-.443-9.175-.5-.33-.028-.575-.044-.575-.025zM164.6 329.3c-.028 0-.081.068-.1.125-.028.066-.477 1.58-1.025 3.375l-1 3.275.3.425c1.635 2.277 5.693 7.806 5.75 7.825.038.01.227-.443.425-1 .198-.567.613-1.73.925-2.6l.55-1.575.35-.05a32.059 32.059 0 011.8-.125l1.425-.05 1.125-1.225 1.125-1.2.6-1.825c.321-.992.544-1.806.525-1.825-.057-.057-5.321-2.025-5.425-2.025-.057 0-.44.436-.875.975-.435.548-.859.969-.925.95-.057-.019-1.317-.79-2.8-1.725-1.483-.945-2.722-1.725-2.75-1.725z"/></svg>