<svg viewBox="0 0 20 20" id="icons-global-rewards-yankee-fill" xmlns="http://www.w3.org/2000/svg"><path d="M10 0c5.523 0 10 4.477 10 10s-4.477 10-10 10S0 15.523 0 10 4.477 0 10 0zm5.39 5.27c-.13-2.49-2.96-3.28-4.99-3.09-3.46.31-7.38 3.12-7.04 6.99.1 1.19.87 2.83 2.23 2.74.69-.04.99-.72.89-1.32-.99-.28-1.61-.91-1.74-2.17C4.43 5.58 7 3.61 9.6 3.39c1.62-.14 3.53.38 3.66 2.24.15 2.22-2.15 4.09-4.15 4.64.21-1.65.47-3.33 1.02-4.9-.2-.3-.74-.52-1.21-.48-.92.09-1.23.63-1.47 2.95-.26 2.52-.44 5.05-.6 7.57.21.22.47.35.85.31.5-.05.88-.3.95-1.04.1-1.18.21-2.25.33-3.25.31-.06.62-.15.91-.23.57 1.75 1.9 5.77 3.98 5.81.74.02 1.24-1.05 1.25-1.62-1.93-.64-3.23-2.93-4.02-4.63 2.17-.87 4.42-2.98 4.29-5.49z" fill="#696158" fill-rule="evenodd"/></svg>