<svg viewBox="0 0 24 24" id="circle-time" xmlns="http://www.w3.org/2000/svg"><g fill="none" fill-rule="evenodd"><path d="M0 0h24v24H0z"/><g fill="#000" fill-rule="nonzero"><path d="M11.988 0C5.364 0 0 5.376 0 12s5.364 12 11.988 12C18.624 24 24 18.624 24 12S18.624 0 11.988 0zM12 21.6A9.597 9.597 0 012.4 12c0-5.304 4.296-9.6 9.6-9.6 5.304 0 9.6 4.296 9.6 9.6 0 5.304-4.296 9.6-9.6 9.6z"/><path d="M11.736 6h-.072a.86.86 0 00-.864.864v5.664c0 .42.216.816.588 1.032l4.98 2.988c.408.24.936.12 1.176-.288a.852.852 0 00-.3-1.188l-4.644-2.76V6.864A.86.86 0 0011.736 6z"/></g></g></svg>