<svg viewBox="0 0 24 24" id="circle-error2" xmlns="http://www.w3.org/2000/svg"><defs><path d="M12 0c6.617 0 12 5.383 12 12s-5.383 12-12 12S0 18.617 0 12 5.383 0 12 0zm.054 22.441c5.75 0 10.427-4.677 10.427-10.426 0-5.749-4.677-10.426-10.427-10.426-5.749 0-10.426 4.677-10.426 10.426 0 5.749 4.677 10.426 10.426 10.426z" id="caa"/></defs><g fill="#000" fill-rule="evenodd"><use xmlns:xlink="http://www.w3.org/1999/xlink" xlink:href="#caa"/><path d="M16.587 7.42a.725.725 0 00-1.027 0L12 10.973l-3.56-3.56A.725.725 0 107.413 8.44l3.56 3.56-3.56 3.56a.725.725 0 101.027 1.027l3.56-3.56 3.56 3.56a.725.725 0 101.027-1.027L13.027 12l3.56-3.56a.73.73 0 000-1.02z" fill-rule="nonzero"/></g></svg>